<svg xmlns="http://www.w3.org/2000/svg" version="1.1" xmlns:xlink="http://www.w3.org/1999/xlink" xmlns:svgjs="http://svgjs.dev/svgjs" width="1500" height="1500" viewBox="0 0 1500 1500"><rect width="1500" height="1500" fill="#ffffff"></rect><g transform="matrix(0.6666666666666666,0,0,0.6666666666666666,249.03228504524287,427.96451612903223)"><svg viewBox="0 0 386 248" data-background-color="#faecff" preserveAspectRatio="xMidYMid meet" height="963" width="1500" xmlns="http://www.w3.org/2000/svg" xmlns:xlink="http://www.w3.org/1999/xlink"><g id="tight-bounds" transform="matrix(1,0,0,1,0.3774657680931739,0.4000000000000199)"><svg viewBox="0 0 385.24894913567965 247.19999999999996" height="247.19999999999996" width="385.24894913567965"><g><svg viewBox="0 0 385.24894913567965 247.19999999999996" height="247.19999999999996" width="385.24894913567965"><g><svg viewBox="0 0 385.24894913567965 247.19999999999996" height="247.19999999999996" width="385.24894913567965"><g id="textblocktransform"><svg viewBox="0 0 385.24894913567965 247.19999999999996" height="247.19999999999996" width="385.24894913567965" id="textblock"><g><svg viewBox="0 0 385.24894913567965 247.19999999999996" height="247.19999999999996" width="385.24894913567965"><g transform="matrix(1,0,0,1,0,0)"><svg width="385.24894913567965" viewBox="1.286666933357 -29.5 73.703333066643 47.3" height="247.19999999999996" data-palette-color="#b182c2"><path d="M6.45 0.25L6.45 0.25Q3.55 0.25 2.18-2.18 0.8-4.6 1.55-8.75L1.55-8.75Q2.25-12.45 4.13-15.15 6-17.85 8.85-19.33 11.7-20.8 15.25-20.8L15.25-20.8 18.35-20.8 17.9-18.05 15.45-18.05Q11.2-18.05 8.28-15.55 5.35-13.05 4.55-8.75L4.55-8.75Q4.05-5.85 4.78-4.17 5.5-2.5 6.95-2.5L6.95-2.5Q9-2.5 11.43-6.13 13.85-9.75 16.2-16.05L16.2-16.05 15.5-9.4Q13.75-4.55 11.28-2.15 8.8 0.25 6.45 0.25ZM11.75 17.8L11.75 17.8Q10.8 17.8 10.63 17.2 10.45 16.6 10.5 16.1L10.5 16.1 17-20.8 18.45-20.8Q19.45-20.8 19.65-20.3 19.85-19.8 19.8-19.4L19.8-19.4 14.15 12.7 16.1 11.05Q17.45 10 18.35 10L18.35 10Q18.9 10 19.2 10.28 19.5 10.55 19.5 11.1L19.5 11.1Q19.5 11.6 19.13 12.13 18.75 12.65 18 13.3L18 13.3 13.2 17.3Q12.8 17.6 12.48 17.7 12.15 17.8 11.75 17.8ZM28.45 0.25L28.45 0.25Q25.35 0.25 23.85-1.73 22.35-3.7 22.95-7.15L22.95-7.15 25.15-19.55Q25.2-19.8 25.42-20.3 25.65-20.8 26.8-20.8L26.8-20.8Q27.8-20.8 27.97-20.28 28.15-19.75 28.1-19.35L28.1-19.35 25.9-6.95Q25.55-4.95 26.3-3.73 27.05-2.5 28.65-2.5L28.65-2.5Q30.4-2.5 32.32-4.42 34.25-6.35 36.9-10.45L36.9-10.45 36.3-6.2Q34.15-2.75 32.32-1.25 30.5 0.25 28.45 0.25ZM35.75 0L35.75 0Q35 0 34.82-0.43 34.65-0.85 34.7-1.6L34.7-1.6 37.85-19.4Q37.9-19.65 38.17-20.23 38.45-20.8 39.55-20.8L39.55-20.8Q40.55-20.8 40.75-20.3 40.95-19.8 40.9-19.4L40.9-19.4 37.75-1.6Q37.65-1.1 37.4-0.73 37.15-0.35 36.75-0.18 36.35 0 35.75 0ZM44.95 0L44.95 0Q44 0 43.8-0.5 43.6-1 43.65-1.35L43.65-1.35 46.75-19.2Q46.9-19.75 47.12-20.1 47.35-20.45 47.75-20.63 48.15-20.8 48.75-20.8L48.75-20.8Q49.5-20.8 49.7-20.38 49.9-19.95 49.8-19.2L49.8-19.2 46.65-1.35Q46.6-1.15 46.35-0.58 46.1 0 44.95 0ZM49.75-26L49.75-26Q49-26 48.47-26.55 47.95-27.1 47.95-27.8L47.95-27.8Q47.95-28.5 48.45-29 48.95-29.5 49.75-29.5L49.75-29.5Q50.45-29.5 51.02-29.03 51.6-28.55 51.6-27.8L51.6-27.8Q51.6-27.1 51.05-26.55 50.5-26 49.75-26ZM67.24 0L67.24 0Q66.29 0 66.12-0.6 65.94-1.2 65.99-1.7L65.99-1.7 68.14-13.85Q68.34-14.85 68.19-15.88 68.04-16.9 67.39-17.6 66.74-18.3 65.39-18.3L65.39-18.3Q63.54-18.3 61.44-16.48 59.34-14.65 56.54-10.35L56.54-10.35 57.14-14.6Q59.19-17.85 61.17-19.45 63.14-21.05 65.59-21.05L65.59-21.05Q67.74-21.05 69.07-20 70.39-18.95 70.92-17.25 71.44-15.55 71.09-13.65L71.09-13.65 69.64-5.1 71.59-6.75Q72.89-7.85 73.84-7.85L73.84-7.85Q74.39-7.85 74.69-7.55 74.99-7.25 74.99-6.7L74.99-6.7Q74.99-6.2 74.62-5.68 74.24-5.15 73.49-4.5L73.49-4.5 68.69-0.55Q68.29-0.2 67.97-0.1 67.64 0 67.24 0ZM50.74 17.8L50.74 17.8Q50.14 17.8 49.72 17.45 49.29 17.1 49.44 16.4L49.44 16.4 55.79-19.4Q55.89-19.85 56.14-20.18 56.39-20.5 56.77-20.65 57.14-20.8 57.49-20.8L57.49-20.8Q58.09-20.8 58.52-20.45 58.94-20.1 58.79-19.4L58.79-19.4 52.44 16.45Q52.34 17.1 51.82 17.45 51.29 17.8 50.74 17.8Z" opacity="1" transform="matrix(1,0,0,1,0,0)" fill="#000000" class="wordmark-text-0" data-fill-palette-color="primary" id="text-0"></path></svg></g></svg></g></svg></g></svg></g><g></g></svg></g><defs></defs></svg><rect width="385.24894913567965" height="247.19999999999996" fill="none" stroke="none" visibility="hidden"></rect></g></svg></g></svg>