<?xml version="1.0" encoding="utf-8"?>
<!-- Generator: Adobe Illustrator 27.5.0, SVG Export Plug-In . SVG Version: 6.00 Build 0)  -->
<svg version="1.1" xmlns="http://www.w3.org/2000/svg" xmlns:xlink="http://www.w3.org/1999/xlink" x="0px" y="0px"
	 viewBox="0 0 750 500" style="enable-background:new 0 0 750 500;" xml:space="preserve">
<g id="BACKGROUND">
	<rect y="-1.268" style="opacity:0.76;fill:#F7ECE4;" width="750" height="502.535"/>
	<rect y="-1.268" style="opacity:0.76;fill:#F7ECE4;" width="750" height="502.535"/>
	<g style="opacity:0.47;">
		<g>
			<g style="opacity:0.68;">
				<path style="opacity:0.47;fill:#EBAEA6;" d="M708.523,224.417c-3.235-31.301-18.797-62.654-45.75-85.061
					c-41.998-34.914-105.528-43.714-161.207-35.643c-23.322,3.381-46.449,9.369-70.329,7.484
					c-34.828-2.749-65.507-21.594-97.217-35.409c-43.165-18.804-92.645-28.925-138.534-20.743
					c-52.03,9.277-94.69,44.322-99.78,90.819c-2.306,21.069,21.13,58.186,13.734,78.153c-7.502,20.252-62.276,82.282-60.926,129.465
					c1.345,47.006,13.96,61.626,31.787,85.516h14.25h536.981h30.905c11.1-24.207,19.797-43.567,6.8-75.355
					c-10.384-25.398,17.828-46.315,28.743-69.957C707.694,272.648,710.892,247.344,708.523,224.417z"/>
			</g>
			<path style="opacity:0.41;fill:#EBAEA6;" d="M47.206,233.8c-5.19-9.895-1.157-22.011,9.008-27.063
				c10.165-5.052,29.674-4.636,34.864,5.258c5.19,9.895-10.456,18.343-16.849,27.546C65.313,252.376,52.395,243.694,47.206,233.8z"
				/>
			<path style="opacity:0.41;fill:#EBAEA6;" d="M703.718,334.6c5.518,4.006,6.656,11.608,2.541,16.98
				c-4.115,5.372-14.784,10.212-20.303,6.205c-5.518-4.006,0.632-12.638,1.569-19.277C688.832,329.25,698.2,330.594,703.718,334.6z"
				/>
			<path style="opacity:0.41;fill:#EBAEA6;" d="M422.208,67.989c5.364-7.955,16.158-10.263,24.108-5.155
				s15.571,19.246,10.207,27.201c-5.364,7.955-18.109,0.381-27.662-0.248C415.539,88.909,416.844,75.944,422.208,67.989z"/>
		</g>
		<g style="opacity:0.43;">
			<path style="fill:#EBAEA6;" d="M644.303,411.307c5.673-27.454-3.42-50.871-5.689-77.79c-2.147-25.486,7.152-46.919,12.311-71.193
				c4.591-21.603,3.061-46.071-2.702-67.303c-7.868-28.987-25.99-55.829-52.099-72.192c-40.682-25.497-94.938-22.495-139.876-4.956
				c-18.823,7.346-37.053,17.121-57.211,19.593c-29.4,3.606-58.016-8.73-86.656-16.131c-38.986-10.074-81.783-10.821-118.566,5.079
				c-41.706,18.028-71.361,58.724-67.896,103.547c1.57,20.31,9.601,40.353,6.758,60.529c-2.883,20.463-15.372,37.582-21.983,56.855
				c-9.023,26.305-9.845,64.965,4.662,91.656h519.18C639.016,430.273,642.316,420.927,644.303,411.307z"/>
		</g>
		<g>
			<g>
				<g style="opacity:0.47;">
					<path style="fill:#EBAEA6;" d="M547.763,325.296c-1.657-16.586-9.63-33.199-23.439-45.073
						c-21.517-18.5-54.064-23.163-82.59-18.887c-11.948,1.791-23.797,4.965-36.031,3.966c-17.843-1.457-33.561-11.443-49.806-18.762
						c-22.114-9.964-47.464-15.327-70.974-10.991c-26.656,4.916-48.511,23.486-51.119,48.124
						c-1.182,11.164,10.826,30.832,7.036,41.412c-3.844,10.731-31.905,43.6-31.214,68.602c0.689,24.908,7.152,32.655,16.285,45.314
						h7.3h275.106h15.833c5.687-12.827,10.142-23.086,3.484-39.929c-5.32-13.458,9.134-24.542,14.726-37.069
						C547.338,350.852,548.976,337.444,547.763,325.296z"/>
				</g>
			</g>
		</g>
	</g>
</g>
<g id="OBJECTS">
	<g>
		<g>
			<g>
				<g>
					<path style="fill:#FFFFFF;" d="M613.75,227.351l66.027-0.102c1.685-0.003,3.049-1.054,3.047-2.348l-0.061-39.408l-0.007-4.434
						c-0.002-1.294-1.369-2.341-3.054-2.338l-66.027,0.102c-1.685,0.003-3.049,1.054-3.047,2.347l0.068,43.842
						C610.697,226.307,612.065,227.353,613.75,227.351z"/>
					<path style="fill:#B7D0F9;" d="M682.766,187.952l-0.011-6.893c-0.002-1.294-1.369-2.341-3.054-2.338l-66.027,0.102
						c-1.685,0.003-3.049,1.054-3.047,2.347l0.01,6.592"/>
					<path style="fill:#FFFFFF;" d="M676.545,184.601c-0.27-0.269-0.419-0.628-0.42-1.009c-0.002-0.787,0.638-1.429,1.425-1.43
						c0.001,0,0.002,0,0.002,0c0.786,0,1.427,0.639,1.428,1.426c0,0.788-0.639,1.429-1.426,1.43c-0.001,0-0.002,0-0.003,0
						C677.172,185.018,676.815,184.87,676.545,184.601z M677.552,182.75c-0.463,0.001-0.839,0.378-0.838,0.841
						c0.001,0.225,0.088,0.435,0.247,0.594c0.159,0.158,0.368,0.245,0.592,0.245c0,0,0.001,0,0.001,0
						c0.463-0.001,0.839-0.378,0.839-0.841c-0.001-0.463-0.378-0.839-0.84-0.839C677.553,182.75,677.553,182.75,677.552,182.75z"/>
					<path style="fill:#FFFFFF;" d="M671.871,183.599L671.871,183.599c-0.001-0.788,0.639-1.429,1.426-1.43c0,0,0.002,0,0.002,0
						c0.786,0,1.427,0.639,1.428,1.426c0.001,0.787-0.639,1.429-1.426,1.43c-0.001,0-0.002,0-0.003,0
						C672.513,185.025,671.873,184.385,671.871,183.599z M673.298,182.757c-0.463,0.001-0.838,0.378-0.838,0.841
						c0.001,0.463,0.378,0.838,0.84,0.838c0,0,0.001,0,0.001,0c0.463-0.001,0.839-0.378,0.838-0.841
						c-0.001-0.463-0.378-0.839-0.84-0.839C673.298,182.757,673.298,182.757,673.298,182.757z"/>
					<path style="fill:#FFFFFF;" d="M667.697,183.605l0.294-0.001L667.697,183.605c-0.001-0.382,0.147-0.74,0.417-1.01
						c0.27-0.271,0.623-0.415,1.012-0.42c0.786,0,1.426,0.639,1.428,1.426c0.001,0.787-0.639,1.429-1.426,1.43
						c-0.001,0-0.002,0-0.002,0C668.339,185.031,667.699,184.392,667.697,183.605z M669.124,182.764
						c-0.225,0-0.435,0.088-0.594,0.247c-0.158,0.159-0.245,0.37-0.245,0.594c0.001,0.463,0.378,0.839,0.839,0.839
						c0.001,0,0.001,0,0.001,0c0.463-0.001,0.839-0.378,0.839-0.841c-0.001-0.463-0.378-0.838-0.84-0.838
						C669.125,182.764,669.125,182.764,669.124,182.764z"/>
					<path style="opacity:0.63;fill:#3B3348;" d="M620.636,196.59h0.001l52.712-0.064c0.296,0,0.535-0.19,0.535-0.424
						c0-0.233-0.241-0.422-0.536-0.422h-0.001l-52.712,0.065c-0.296,0-0.535,0.19-0.535,0.424
						C620.1,196.402,620.341,196.59,620.636,196.59z"/>
					<path style="opacity:0.63;fill:#3B3348;" d="M647.03,214.839L647.03,214.839l26.356-0.032c0.296,0,0.535-0.19,0.535-0.424
						c0-0.233-0.241-0.422-0.536-0.422h-0.001l-26.355,0.032c-0.296,0-0.535,0.19-0.535,0.424
						C646.494,214.65,646.734,214.839,647.03,214.839z"/>
					<path style="opacity:0.63;fill:#3B3348;" d="M658.048,202.034h0.001l15.319-0.024c0.296,0,0.536-0.19,0.535-0.424
						c-0.001-0.233-0.241-0.422-0.536-0.422h-0.001l-15.319,0.024c-0.296,0-0.536,0.19-0.535,0.424
						C657.513,201.845,657.752,202.034,658.048,202.034z"/>
					<path style="opacity:0.63;fill:#3B3348;" d="M620.656,202.074L620.656,202.074l33.701-0.024c0.296,0,0.536-0.19,0.536-0.423
						c0-0.234-0.24-0.423-0.536-0.423l0,0l-33.701,0.024c-0.296,0-0.536,0.19-0.536,0.423
						C620.12,201.885,620.36,202.074,620.656,202.074z"/>
					<path style="opacity:0.63;fill:#3B3348;" d="M643.569,208.521c0,0,0,0,0.001,0l29.797-0.024
						c0.295-0.001,0.535-0.19,0.535-0.424s-0.24-0.423-0.536-0.423c0,0,0,0-0.001,0l-29.797,0.024c-0.295,0-0.535,0.19-0.535,0.423
						C643.033,208.332,643.273,208.521,643.569,208.521z"/>
					<path style="opacity:0.63;fill:#3B3348;" d="M620.656,208.561h0.001l19.678-0.024c0.297,0,0.535-0.19,0.535-0.424
						c0-0.233-0.241-0.422-0.536-0.422h-0.001l-19.678,0.024c-0.297,0-0.535,0.19-0.535,0.424
						C620.12,208.373,620.361,208.561,620.656,208.561z"/>
				</g>
			</g>
			<g>
				<path style="fill:#9D9DD9;" d="M619.484,144.445c9.883-0.332,18.319,6.54,20.302,15.888l4.571-0.933
					c-2.73-13.367-15.779-21.991-29.146-19.261l0.963,4.715C617.25,144.637,618.35,144.483,619.484,144.445z"/>
				<path style="fill:#FFFFFF;" d="M620.118,189.051c1.641,0.001,3.307-0.163,4.978-0.504l0,0h0
					C623.425,188.887,621.759,189.051,620.118,189.051z"/>
				<path style="fill:#FFFFFF;" d="M600.086,165.193c-0.335-9.952,6.638-18.434,16.087-20.339l-0.963-4.715
					c-13.367,2.73-21.991,15.779-19.261,29.146l4.519-0.923C600.268,167.33,600.123,166.277,600.086,165.193z"/>
				<g>
					<path style="fill:#E5918A;" d="M625.096,188.546L625.096,188.546c13.367-2.73,21.991-15.779,19.261-29.146l-4.571,0.933
						c0.241,1.138,0.406,2.306,0.446,3.51c0.373,11.086-8.312,20.375-19.398,20.748c-10.002,0.336-18.517-6.708-20.366-16.229
						l-4.519,0.923c2.047,10.025,9.899,17.382,19.337,19.283c1.573,0.317,3.19,0.482,4.831,0.483
						C621.759,189.051,623.425,188.887,625.096,188.546z"/>
					<path style="fill:#E5918A;" d="M620.133,189.55c-0.005,0-0.01,0-0.015,0c-1.652,0-3.312-0.166-4.931-0.492
						c-9.953-2.004-17.696-9.727-19.727-19.673l-0.1-0.49l5.503-1.124l0.097,0.496c1.843,9.494,10.186,16.138,19.857,15.825
						c5.229-0.176,10.075-2.377,13.648-6.199c3.572-3.821,5.442-8.805,5.267-14.034c-0.037-1.096-0.18-2.215-0.435-3.422
						l-0.104-0.493l5.554-1.134l0.101,0.49c1.347,6.596,0.045,13.321-3.667,18.938c-3.712,5.616-9.388,9.451-15.984,10.798l0,0
						C623.524,189.377,621.82,189.55,620.133,189.55z M596.545,169.674c2.101,9.316,9.445,16.512,18.84,18.404
						c1.555,0.313,3.147,0.472,4.733,0.473c0.005,0,0.01,0,0.014,0c1.622,0,3.258-0.166,4.864-0.494l0,0
						c6.334-1.294,11.785-4.976,15.35-10.37c3.473-5.254,4.749-11.519,3.616-17.696l-3.587,0.733
						c0.206,1.08,0.323,2.099,0.357,3.102c0.185,5.496-1.781,10.734-5.536,14.751c-3.755,4.016-8.85,6.33-14.346,6.515
						c-9.94,0.355-18.643-6.423-20.771-16.139L596.545,169.674z"/>
				</g>
			</g>
			<g>
				<g>
					<path style="fill:#FFFFFF;" d="M669.096,160.486c-0.29,0-0.579-0.091-0.827-0.272v-0.001l-12.681-9.311l-0.505-0.288
						l0.36-0.456c0.515-0.651,1.284-1.024,2.111-1.024h22.612c0.957,0,1.851,0.427,2.453,1.172l0.331,0.409l-13.032,9.501
						C669.673,160.396,669.384,160.486,669.096,160.486z M668.86,159.408c0.141,0.103,0.33,0.103,0.469,0.001l12.131-8.844
						c-0.369-0.278-0.82-0.431-1.293-0.431h-22.612c-0.337,0-0.659,0.099-0.932,0.28L668.86,159.408z"/>
					<path style="fill:#FFFFFF;" d="M681.068,168.315h-23.95c-0.304,0-0.599-0.059-0.875-0.177l-0.802-0.339l0.73-0.547l9.986-8.885
						l2.252,1.655c0.401,0.296,0.966,0.296,1.369,0.002l2.03-1.481l10.71,9.493l-0.945,0.218
						C681.396,168.295,681.23,168.315,681.068,168.315z M657.605,167.315h22.593l-8.449-7.49l-1.382,1.007
						c-0.748,0.545-1.804,0.544-2.55-0.006l-1.599-1.175L657.605,167.315z"/>
					<path style="fill:#FFFFFF;" d="M656.039,168.288l-0.55-0.674c-0.404-0.423-0.627-0.975-0.627-1.555v-14.233
						c0-0.288,0.046-0.573,0.138-0.848l0.217-0.652l11.138,8.184l-10.067,8.957L656.039,168.288z M655.862,152.042v14.018
						c0,0.134,0.021,0.267,0.063,0.392l8.841-7.866L655.862,152.042z"/>
					<path style="fill:#FFFFFF;" d="M682.079,168.138l-0.31-0.445l0.002-0.002l-10.158-9.004l11.229-8.187l0.242,0.588
						c0.158,0.382,0.238,0.787,0.238,1.203v13.769c0,0.67-0.301,1.302-0.825,1.734L682.079,168.138z M673.207,158.763l8.941,7.926
						c0.113-0.19,0.175-0.406,0.175-0.63V152.29c0-0.057-0.002-0.114-0.007-0.17L673.207,158.763z"/>
				</g>
			</g>
		</g>
		<g>
			<g>
				<g>
					<path style="fill:#B7D0F9;" d="M230.687,139.27c0,7.023-5.693,12.716-12.716,12.716c-7.023,0-12.716-5.693-12.716-12.716
						c0-7.023,5.693-12.716,12.716-12.716C224.994,126.554,230.687,132.247,230.687,139.27z"/>
					<g>
						<rect x="235.089" y="131.933" style="fill:#E9A7B2;" width="30.323" height="1.956"/>
						<rect x="235.089" y="137.313" style="fill:#E9A7B2;" width="30.323" height="1.956"/>
						<rect x="235.089" y="143.182" style="fill:#E9A7B2;" width="30.323" height="1.956"/>
					</g>
					<path style="fill:#FFFFFF;" d="M219.917,133.896l0.59,2.592c0.086,0.379,0.354,0.691,0.715,0.835l2.47,0.983
						c0.91,0.362,1.009,1.61,0.169,2.111l-2.283,1.363c-0.334,0.199-0.548,0.55-0.573,0.938l-0.172,2.653
						c-0.063,0.977-1.219,1.457-1.956,0.813l-2.001-1.75c-0.293-0.256-0.692-0.351-1.069-0.256l-2.576,0.657
						c-0.949,0.242-1.762-0.709-1.377-1.609l1.046-2.444c0.153-0.357,0.12-0.767-0.088-1.096l-1.42-2.247
						c-0.523-0.827,0.13-1.895,1.105-1.807l2.648,0.239c0.387,0.035,0.767-0.123,1.015-0.422l1.698-2.045
						C218.482,132.651,219.699,132.942,219.917,133.896z"/>
					<rect x="180.255" y="140.474" style="fill:#FFFFFF;" width="24.973" height="1"/>
				</g>
				<g>
					<g>
						<g>
							<path style="fill:#FFFFFF;" d="M183.841,162.033l-60.969-0.094c-1.556-0.002-2.815-0.973-2.814-2.168l0.056-36.389
								l0.006-4.095c0.002-1.195,1.265-2.161,2.82-2.159l60.969,0.094c1.556,0.002,2.816,0.973,2.814,2.168l-0.063,40.483
								C186.66,161.068,185.397,162.035,183.841,162.033z"/>
							<path style="fill:#E9A7B2;" d="M120.112,125.652l0.01-6.365c0.002-1.195,1.265-2.161,2.82-2.159l60.969,0.094
								c1.556,0.002,2.816,0.973,2.814,2.168l-0.009,6.087"/>
							<path style="fill:#FFFFFF;" d="M124.926,122.943c-0.001,0-0.002,0-0.003,0c-0.727-0.001-1.317-0.593-1.317-1.32
								c0.002-0.727,0.593-1.317,1.319-1.317c0,0,0.002,0,0.002,0c0.727,0.001,1.318,0.594,1.316,1.321
								c-0.001,0.352-0.139,0.683-0.388,0.932C125.607,122.807,125.277,122.943,124.926,122.943z M124.925,120.849
								c-0.427,0-0.775,0.347-0.776,0.774c0,0.427,0.347,0.776,0.775,0.776c0.001,0,0.001,0,0.001,0c0.207,0,0.401-0.08,0.547-0.226
								c0.147-0.146,0.228-0.341,0.228-0.548C125.701,121.198,125.354,120.85,124.925,120.849
								C124.926,120.849,124.926,120.849,124.925,120.849z"/>
							<path style="fill:#FFFFFF;" d="M128.854,122.949c-0.001,0-0.002,0-0.003,0c-0.726-0.001-1.317-0.593-1.316-1.32
								c0.001-0.727,0.593-1.317,1.319-1.317c0.001,0,0.002,0,0.002,0c0.726,0.001,1.317,0.594,1.316,1.321v0
								C130.171,122.359,129.579,122.949,128.854,122.949z M128.854,120.855c-0.427,0-0.775,0.347-0.776,0.774
								c-0.001,0.427,0.347,0.776,0.774,0.776c0,0,0.001,0,0.001,0c0.427,0,0.775-0.347,0.776-0.774
								c0-0.427-0.347-0.776-0.774-0.776C128.854,120.855,128.854,120.855,128.854,120.855z"/>
							<path style="fill:#FFFFFF;" d="M132.708,122.955c-0.001,0-0.002,0-0.002,0c-0.727-0.001-1.317-0.594-1.317-1.321
								c0.002-0.727,0.593-1.317,1.318-1.317c0.359,0.005,0.685,0.138,0.934,0.388c0.249,0.249,0.385,0.581,0.385,0.933
								l-0.272-0.001l0.272,0.001C134.025,122.365,133.434,122.955,132.708,122.955z M132.708,120.861
								c-0.427,0-0.775,0.347-0.776,0.774c-0.001,0.427,0.347,0.776,0.775,0.777c0.001,0,0.001,0,0.001,0
								c0.427,0,0.775-0.347,0.775-0.774c0.001-0.207-0.08-0.402-0.226-0.548C133.11,120.943,132.916,120.862,132.708,120.861
								C132.708,120.861,132.708,120.861,132.708,120.861z"/>
							<path style="opacity:0.63;fill:#3B3348;" d="M177.482,133.629h-0.001l-48.673-0.06c-0.274,0-0.494-0.175-0.494-0.391
								c0-0.215,0.222-0.39,0.495-0.39h0.001l48.673,0.059c0.274,0,0.494,0.176,0.494,0.391
								C177.977,133.455,177.755,133.629,177.482,133.629z"/>
							<path style="opacity:0.63;fill:#3B3348;" d="M153.11,150.48L153.11,150.48l-24.337-0.03c-0.274,0-0.494-0.176-0.494-0.391
								c0-0.215,0.222-0.39,0.495-0.39h0.001l24.336,0.03c0.274,0,0.494,0.176,0.494,0.391
								C153.605,150.305,153.383,150.48,153.11,150.48z"/>
							<path style="opacity:0.63;fill:#3B3348;" d="M142.937,138.656h-0.001l-14.146-0.022c-0.274,0-0.495-0.175-0.494-0.391
								c0.001-0.215,0.222-0.39,0.495-0.39h0.001l14.146,0.022c0.274,0,0.495,0.176,0.494,0.391
								C143.431,138.482,143.209,138.656,142.937,138.656z"/>
							<path style="opacity:0.63;fill:#3B3348;" d="M177.464,138.693L177.464,138.693l-31.119-0.022
								c-0.274,0-0.495-0.175-0.495-0.391c0-0.216,0.221-0.39,0.495-0.39l0,0l31.119,0.022c0.274,0,0.495,0.175,0.495,0.391
								C177.959,138.518,177.737,138.693,177.464,138.693z"/>
							<path style="opacity:0.63;fill:#3B3348;" d="M156.306,144.646c0,0,0,0-0.001,0l-27.515-0.022
								c-0.273,0-0.494-0.175-0.494-0.391s0.222-0.39,0.495-0.39c0,0,0,0,0.001,0l27.515,0.022c0.273,0,0.494,0.175,0.494,0.391
								C156.801,144.471,156.579,144.646,156.306,144.646z"/>
							<path style="opacity:0.63;fill:#3B3348;" d="M177.464,144.683h-0.001l-18.171-0.022c-0.274,0-0.494-0.175-0.494-0.391
								c0-0.215,0.222-0.39,0.495-0.39h0.001l18.171,0.022c0.274,0,0.494,0.176,0.494,0.391
								C177.959,144.509,177.736,144.683,177.464,144.683z"/>
						</g>
					</g>
				</g>
				<g>
					<g>
						<g>
							<path style="fill:#E5918A;" d="M190.951,96.826c0.429,0.315,1.006,0.317,1.438,0.003l17.109-12.473
								c-0.661-0.816-1.67-1.339-2.802-1.339h-30.684c-0.947,0-1.788,0.444-2.333,1.132c0.019,0.011,0.041,0.014,0.059,0.028
								L190.951,96.826z"/>
						</g>
						<g>
							<path style="fill:#E5918A;" d="M192.998,97.664c-0.397,0.289-0.861,0.434-1.326,0.434c-0.467,0-0.934-0.146-1.332-0.439
								l-2.613-1.92l-13.2,11.743c-0.01,0.009-0.022,0.012-0.033,0.02c0.284,0.12,0.596,0.186,0.923,0.186h32.5
								c0.184,0,0.362-0.026,0.534-0.065l-13.139-11.647L192.998,97.664z"/>
						</g>
						<g>
							<path style="fill:#E5918A;" d="M186.875,95.113l-13.687-10.058c-0.098,0.295-0.153,0.609-0.153,0.936v19.314
								c0,0.638,0.254,1.214,0.662,1.641c0.027-0.088,0.068-0.172,0.142-0.237L186.875,95.113z"/>
						</g>
						<g>
							<path style="fill:#E5918A;" d="M209.359,107.044c0.03,0.026,0.046,0.06,0.069,0.091c0.529-0.437,0.873-1.09,0.873-1.829
								V86.621c0-0.486-0.098-0.95-0.272-1.373l-13.859,10.104L209.359,107.044z"/>
						</g>
					</g>
				</g>
			</g>
			<path style="opacity:0.63;fill:#3B3348;" d="M267.898,83.923h-22.316c-0.552,0-1-0.448-1-1c0-0.552,0.448-1,1-1h22.316
				c0.552,0,1,0.448,1,1C268.898,83.476,268.451,83.923,267.898,83.923z"/>
			<path style="opacity:0.63;fill:#3B3348;" d="M282.473,92.077H246.37c-0.552,0-1-0.448-1-1c0-0.552,0.448-1,1-1h36.103
				c0.552,0,1,0.448,1,1C283.473,91.629,283.025,92.077,282.473,92.077z"/>
			<g>
				<path style="fill:#FFFFFF;" d="M233.873,65.049h94.198c5.006,0,9.064,4.103,9.064,9.164v35.898v14.315
					c0,1.526-1.837,2.275-2.884,1.176l-8.991-9.436c-0.8-0.84-1.904-1.315-3.058-1.315l-88.33-0.104
					c-4.325,0-7.832-3.545-7.832-7.918V72.967C226.042,68.594,229.548,65.049,233.873,65.049z"/>
				<path style="opacity:0.63;fill:#3B3348;" d="M313.151,83.923H273.02c-0.552,0-1-0.448-1-1c0-0.552,0.448-1,1-1h40.131
					c0.552,0,1,0.448,1,1C314.151,83.476,313.703,83.923,313.151,83.923z"/>
				<path style="opacity:0.63;fill:#3B3348;" d="M283.068,92.049h-40.131c-0.552,0-1-0.448-1-1c0-0.552,0.448-1,1-1h40.131
					c0.552,0,1,0.448,1,1C284.068,91.602,283.62,92.049,283.068,92.049z"/>
				<path style="opacity:0.63;fill:#3B3348;" d="M313.151,92.077h-23.972c-0.552,0-1-0.448-1-1c0-0.552,0.448-1,1-1h23.972
					c0.552,0,1,0.448,1,1C314.151,91.629,313.703,92.077,313.151,92.077z"/>
				<path style="opacity:0.63;fill:#3B3348;" d="M267.853,83.951h-23.972c-0.552,0-1-0.448-1-1c0-0.552,0.448-1,1-1h23.972
					c0.552,0,1,0.448,1,1C268.853,83.503,268.406,83.951,267.853,83.951z"/>
				<path style="opacity:0.63;fill:#3B3348;" d="M313.151,100.229h-38.185c-0.552,0-1-0.448-1-1c0-0.552,0.448-1,1-1h38.185
					c0.552,0,1,0.448,1,1C314.151,99.782,313.703,100.229,313.151,100.229z"/>
				<g>
					<path style="fill:none;stroke:#243762;stroke-linecap:round;stroke-miterlimit:10;" d="M267.269,111.427"/>
					<g>
						<rect x="280.932" y="134.092" style="fill:#B7D0F9;" width="11.894" height="35.57"/>
						<rect x="295.579" y="118.292" style="fill:#E9A7B2;" width="11.894" height="51.371"/>
						<rect x="310.574" y="106.543" style="fill:#9D9DD9;" width="11.894" height="63.12"/>
					</g>
				</g>
			</g>
		</g>
	</g>
	<g>
		<g>
			<g>
				<path style="fill:#FFFFFF;" d="M315.155,383.107H103.683c-7.911,0-14.325-6.413-14.325-14.325V214.675H329.48v154.107
					C329.48,376.693,323.066,383.107,315.155,383.107z"/>
				<g>
					<path style="fill:#B7D0F9;" d="M324.649,198.501l-128.699-0.199c-0.527-0.001-1.035,0.056-1.522,0.154l-99.932-0.154
						c-3.284-0.005-5.95,2.035-5.953,4.557l-0.021,13.435l101.455-0.266l0,0.266l140.593-0.369l0.02-12.848
						C330.592,200.555,327.933,198.506,324.649,198.501z"/>
					<path style="fill:#FFFFFF;" d="M99.18,210.422c-0.706-0.001-1.367-0.276-1.865-0.775c-0.498-0.499-0.771-1.16-0.77-1.862
						c0.002-1.451,1.184-2.631,2.635-2.631h0.003c1.453,0.003,2.633,1.187,2.631,2.638c-0.002,0.706-0.277,1.367-0.775,1.863
						C100.541,210.15,99.881,210.422,99.18,210.422z M99.18,205.654v0.5c-0.9,0-1.634,0.732-1.635,1.632
						c0,0.436,0.17,0.846,0.478,1.155c0.62,0.621,1.694,0.618,2.31,0.004c0.309-0.307,0.479-0.718,0.48-1.156
						c0.001-0.9-0.731-1.634-1.632-1.636L99.18,205.654z"/>
					<path style="fill:#FFFFFF;" d="M109.99,210.439c-1.455-0.002-2.635-1.185-2.633-2.637c0.002-1.451,1.184-2.631,2.635-2.631
						h0.003c1.451,0.002,2.631,1.186,2.631,2.637C112.623,209.259,111.441,210.439,109.99,210.439z M109.992,205.671v0.5
						c-0.9,0-1.634,0.732-1.635,1.632c-0.001,0.901,0.73,1.635,1.631,1.636c0.903,0,1.637-0.731,1.638-1.631
						c0-0.901-0.732-1.635-1.632-1.637L109.992,205.671z"/>
					<path style="fill:#FFFFFF;" d="M120.6,210.456c-1.457-0.003-2.637-1.187-2.635-2.638c0.002-1.451,1.184-2.63,2.635-2.63h0.003
						c0.704,0.001,1.365,0.276,1.862,0.774c0.497,0.499,0.77,1.161,0.768,1.864C123.231,209.276,122.05,210.456,120.6,210.456z
						 M120.6,205.688v0.5c-0.9,0-1.634,0.732-1.635,1.631c-0.001,0.901,0.731,1.635,1.633,1.637c0.901,0,1.634-0.732,1.635-1.632
						c0.001-0.436-0.168-0.846-0.477-1.156c-0.308-0.309-0.718-0.479-1.155-0.48L120.6,205.688z"/>
				</g>
			</g>
			<g>
				<rect x="110.926" y="234.953" style="opacity:0.81;fill:#F7ECE4;" width="202.68" height="131.008"/>
				<path style="fill:#FFFFFF;" d="M141.901,247.027l-4.829,1.288c-0.09,0.024-0.153,0.105-0.153,0.199v-2.551
					c0-0.897-0.727-1.625-1.625-1.625h-14.568c-0.897,0-1.625,0.727-1.625,1.625v10.725c0,0.897,0.728,1.625,1.625,1.625h14.568
					c0.897,0,1.625-0.728,1.625-1.625v-2.551c0,0.093,0.063,0.175,0.153,0.199l4.829,1.288c0.13,0.035,0.258-0.064,0.258-0.199
					v-8.199C142.159,247.09,142.031,246.992,141.901,247.027z"/>
			</g>
		</g>
		<g>
			<g>
				<g>
					<path style="fill:#33002B;" d="M248.012,229.466c1.68-2.294,2.685-5.114,2.685-8.175v0c0-3.531-1.329-6.744-3.505-9.189
						l3.113-6.546c3.146-6.616,1.802-14.298-3.176-19.639c1.612-4.272,0.579-9.378-3.053-12.748
						c-5.083-4.718-10.682-6.635-15.744-7.166c-3.006-0.316-5.845-0.011-8.382,0.776c-4.816-2.103-10.131-3.276-15.722-3.276h0
						c-21.728,0-39.342,17.614-39.342,39.342c0,2.054,0.173,4.066,0.48,6.034c-4.568,2.268-7.715,6.967-7.715,12.413v0
						c0,3.774,1.512,7.191,3.958,9.691c-6.762,4.555-11.217,12.273-11.217,21.039l0,0c0,14.009,11.356,25.365,25.365,25.365h0
						c5.148,0,9.93-1.544,13.929-4.178c6.612,9.283,17.454,15.344,29.719,15.344c20.143,0,36.472-16.329,36.472-36.472
						C255.878,243.534,252.933,235.683,248.012,229.466z"/>
					<g>
						<g>
							<g>
								<g>
									<path style="fill:#F1CDBE;" d="M241.311,193.269c-0.059,0.028-0.111,0.063-0.171,0.09
										c-5.137,2.337-12.496,3.135-22.251-1.741c-3.145-1.572-5.432-3.304-7.071-5.112c-1.905,11.69-9.423,20.862-19.576,22.356
										l-7.705,1.134c-2.647,1.865-4.193,5.113-3.701,8.522c0.697,4.829,5.217,8.209,10.046,7.512l3.127-0.451l0.011,0.075
										c-0.273,1.163-0.43,2.368-0.424,3.612l0.137,26.015c0.045,8.554,7.081,15.516,15.635,15.471h0
										c8.554-0.045,15.516-7.081,15.471-15.635l-0.026-4.889c7.677-1.759,13.811-6.97,16.974-13.724
										c2.912-4.74,4.248-10.486,3.392-16.423L241.311,193.269z"/>
								</g>
							</g>
						</g>
						<g>
							<path style="opacity:0.32;fill:#E48C77;" d="M224.283,248.023L224.283,248.023c-13.486,1.946-25.996-7.409-27.942-20.895
								l-0.266-1.846l-2.066,0.298l0.569,3.942c0.899,6.234,4.04,11.589,8.483,15.379c-0.129,0.604-0.205,1.224-0.205,1.86
								c0,5.597,5.218,10.135,11.655,10.135c5.108,0,9.438-2.862,11.013-6.839c7.337-1.908,13.184-7,16.252-13.533
								C238.072,242.542,231.825,246.935,224.283,248.023z"/>
							<path style="fill:#FFFFFF;" d="M188.895,234.412c-3.731,0-6.768-3.036-6.768-6.768c0-3.732,3.036-6.768,6.768-6.768
								c3.732,0,6.768,3.036,6.768,6.768C195.663,231.376,192.626,234.412,188.895,234.412z M188.895,222.876
								c-2.629,0-4.768,2.139-4.768,4.768c0,2.629,2.139,4.768,4.768,4.768c2.629,0,4.768-2.139,4.768-4.768
								C193.663,225.015,191.523,222.876,188.895,222.876z"/>
							<path style="fill:#E48C77;" d="M186.955,220.129c-0.156,0-0.311-0.073-0.408-0.21c-0.16-0.225-0.107-0.538,0.117-0.697
								l2.757-1.961l-3.301-3.388c-0.193-0.198-0.189-0.515,0.009-0.707c0.198-0.192,0.515-0.188,0.707,0.009l3.709,3.806
								c0.102,0.105,0.153,0.249,0.14,0.394c-0.013,0.146-0.089,0.278-0.208,0.362l-3.233,2.3
								C187.157,220.099,187.055,220.129,186.955,220.129z"/>
							<g>
								<g>
									<g>
										<path style="fill:#E48C77;" d="M229.283,238.25c-0.136,0-0.271-0.055-0.37-0.164c-0.186-0.204-0.171-0.52,0.033-0.706
											c1.898-1.73,4.304-1.136,5.311-0.579c0.241,0.133,0.328,0.436,0.195,0.678c-0.132,0.242-0.436,0.329-0.678,0.198
											c-0.094-0.051-2.316-1.231-4.155,0.442C229.523,238.207,229.403,238.25,229.283,238.25z"/>
									</g>
								</g>
								<g>
									<g>
										<g>
											<g>
												<g>
													<path style="fill:#33002B;" d="M242.215,204.451c-0.484,0.222-1.119,0.176-1.734,0.167
														c-0.62-0.023-1.243-0.03-1.784-0.017c-0.543,0.012-1.165,0.048-1.783,0.099c-0.615,0.038-1.25,0.113-1.736-0.087
														c-0.47-0.186-0.673-0.746-0.137-1.452c0.502-0.687,1.839-1.452,3.635-1.498c1.793-0.037,3.142,0.667,3.655,1.33
														C242.875,203.675,242.682,204.243,242.215,204.451z"/>
												</g>
											</g>
											<g>
												<g>
													<path style="fill:#33002B;" d="M217.092,207.238c0.614,0.059,1.29-0.233,1.959-0.478
														c0.669-0.261,1.347-0.506,1.944-0.698c0.598-0.193,1.292-0.391,1.987-0.57c0.686-0.193,1.409-0.352,1.865-0.756
														c0.443-0.382,0.451-1.071-0.402-1.639c-0.81-0.56-2.563-0.888-4.543-0.254c-1.974,0.642-3.181,1.924-3.489,2.845
														C216.075,206.641,216.502,207.189,217.092,207.238z"/>
												</g>
											</g>
										</g>
									</g>
								</g>
								<g>
									<path style="fill:#F1CDBE;" d="M230.406,206.952l0.41,5.533c0.072,0.978,0.924,1.711,1.901,1.639l1.214-0.09
										c0.824-0.061,1.541,0.557,1.602,1.381l0,0c0.197,2.665-1.803,4.985-4.467,5.182l-1.75,0.13"/>
									<path style="fill:#E48C77;" d="M229.314,221.227c-0.259,0-0.479-0.2-0.498-0.463c-0.02-0.275,0.186-0.515,0.461-0.536
										l1.75-0.13c1.156-0.085,2.209-0.616,2.965-1.494c0.756-0.878,1.126-1.998,1.04-3.153c-0.04-0.548-0.521-0.962-1.067-0.92
										l-1.213,0.09c-0.603,0.048-1.194-0.148-1.654-0.546c-0.461-0.397-0.738-0.949-0.783-1.556l-0.41-5.532
										c-0.02-0.275,0.186-0.515,0.462-0.536c0.276-0.023,0.515,0.186,0.536,0.461l0.41,5.533c0.025,0.34,0.181,0.649,0.439,0.872
										c0.258,0.222,0.588,0.327,0.927,0.306l1.213-0.09c1.105-0.08,2.057,0.746,2.138,1.843c0.105,1.422-0.349,2.8-1.28,3.88
										c-0.931,1.08-2.227,1.733-3.649,1.838l-1.75,0.13C229.339,221.227,229.327,221.227,229.314,221.227z"/>
								</g>
								<g>
									<g>
										<path style="fill:#FFFFFF;" d="M221.241,222.43c0,0,4.358,1.896,8.736,2.302c4.377,0.406,1.303,7.817-5.355,7.557
											C217.964,232.03,217.655,221.859,221.241,222.43z"/>
									</g>
								</g>
								<path style="fill:#33002B;" d="M236.784,209.915c0.17,0.814,0.968,1.335,1.782,1.165s1.335-0.968,1.165-1.782
									s-0.968-1.335-1.782-1.165S236.614,209.101,236.784,209.915z"/>
								<path style="fill:#33002B;" d="M221.323,211.572c0.17,0.814,0.968,1.336,1.782,1.165c0.814-0.17,1.335-0.968,1.165-1.782
									c-0.17-0.814-0.968-1.336-1.782-1.165C221.674,209.961,221.153,210.759,221.323,211.572z"/>
								<path style="fill:#E48C77;" d="M236.974,211.989c-0.134,0-0.267-0.053-0.366-0.158c-0.186-0.201-0.179-0.513,0.02-0.702
									c0.501-0.476,1.872-1.131,3.463-0.205c0.239,0.139,0.319,0.445,0.181,0.684c-0.138,0.239-0.446,0.319-0.684,0.181
									c-1.327-0.773-2.238,0.034-2.275,0.069C237.217,211.945,237.095,211.989,236.974,211.989z"/>
								<path style="fill:#E48C77;" d="M221.55,213.737c-0.115,0-0.23-0.04-0.324-0.12c-0.209-0.179-0.235-0.49-0.059-0.7
									c0.46-0.548,1.771-1.349,3.437-0.47c0.244,0.129,0.338,0.431,0.209,0.676c-0.129,0.244-0.43,0.337-0.676,0.209
									c-1.335-0.704-2.122,0.135-2.207,0.232C221.83,213.678,221.69,213.737,221.55,213.737z"/>
							</g>
						</g>
					</g>
				</g>
			</g>
			<g>
				<path style="fill:#F1CDBE;" d="M305.57,271.945l-0.767-15.68c0,0,9.876-10.387,9.106-13.603
					c-0.868-3.626-2.167-4.891-3.436-8.416c-0.465-1.291-1.075-2.583-2.115-3.477c-1.317-1.132-3.142-1.471-4.878-1.493
					c-2.118-0.027-4.471,0.348-6.627-0.018l7.814-16.154c0.659-1.362,0.492-2.98-0.431-4.179l-1.04-1.351
					c-0.642-0.833-1.913-0.788-2.493,0.089l-19.55,30.211l0.362-0.199l-0.877,1.039c-3.371,6.048-3.42,12.184-3.42,12.184
					l-0.919,10.123l0.899,38.353l-3.8-1.64c-16.545-28.604-28.884-30.248-28.884-30.248c1.122,12.377-1.341,74.209-1.341,74.209
					l24.146,13.091c18.99,10.296,42.545-3.48,42.049-25.076c-0.01-0.443-0.03-0.887-0.06-1.334L305.57,271.945z"/>
				<path style="opacity:0.24;fill:#E48C77;" d="M294.539,229.276c0,0-10.992,20.568,5.768,19.807
					c16.759-0.762,14.256-10.883,14.256-10.883S305.857,219.264,294.539,229.276z"/>
				<path style="fill:#F1CDBE;" d="M279.979,220.675l-2.96,10.993c-0.705,2.618-0.791,5.364-0.25,8.021l1.192,5.863
					c0.722,3.55,3.341,6.414,6.813,7.449l0,0c5.938,1.77,11.564-3.553,10.125-9.579v0c-0.663-3.974-4.269-6.771-8.283-6.426l0,0
					l-2.613-7.324l0.103-0.441c0.674-2.877,0.066-5.905-1.667-8.298l-0.453-0.625C281.428,219.536,280.226,219.757,279.979,220.675z
					"/>
				<path style="fill:#F1CDBE;" d="M308.49,228.58c-0.421,0.241-0.808,0.573-1.178,0.896c0.191-0.167,0.4-0.316,0.601-0.47
					c2.223-1.696-2.848,2.198-5.13,3.801c-0.79,0.555-1.552,1.154-2.333,1.726c-0.813,0.595-1.759,1.125-2.512,1.794
					c-1.476,1.312-0.128,2.539,1.105,3.121c1.577,0.744,3.486,0.617,5.162,0.094c1.458-0.456,2.838-1.271,4.264-1.839
					c1.514-0.603,3.015-1.278,4.38-2.202c0.553-0.374,1.094-0.801,1.443-1.373c1.19-1.953-1.049-4.11-2.439-5.074
					c-0.725-0.502-1.574-0.948-2.465-0.808C309.069,228.298,308.772,228.419,308.49,228.58z"/>
				<path style="fill:#F1CDBE;" d="M303.275,223.171c-0.391,0.223-0.75,0.531-1.093,0.831c0.177-0.155,0.371-0.294,0.557-0.436
					c2.062-1.573-2.642,2.039-4.76,3.527c-0.733,0.515-1.44,1.071-2.165,1.602c-0.754,0.552-1.632,1.044-2.331,1.665
					c-1.369,1.217-0.119,2.356,1.026,2.896c1.463,0.69,3.234,0.573,4.789,0.087c1.353-0.423,2.633-1.179,3.957-1.706
					c1.405-0.559,2.797-1.186,4.064-2.043c0.513-0.347,1.015-0.743,1.339-1.274c1.104-1.812-0.973-3.814-2.263-4.707
					c-0.673-0.466-1.461-0.88-2.287-0.749C303.813,222.909,303.537,223.021,303.275,223.171z"/>
				<path style="fill:#F1CDBE;" d="M311.487,234.812c-0.403,0.216-0.769,0.521-1.119,0.818c0.18-0.153,0.379-0.289,0.57-0.429
					c2.112-1.547-2.705,2.007-4.879,3.464c-0.753,0.505-1.475,1.052-2.219,1.573c-0.773,0.542-1.679,1.017-2.391,1.632
					c-1.397,1.205-0.042,2.423,1.181,3.02c1.563,0.763,3.42,0.705,5.038,0.26c1.407-0.387,2.726-1.121,4.099-1.617
					c1.457-0.526,2.898-1.122,4.199-1.96c0.527-0.339,1.04-0.729,1.362-1.265c1.096-1.827-1.158-3.963-2.547-4.93
					c-0.724-0.504-1.567-0.958-2.431-0.853C312.042,234.562,311.756,234.667,311.487,234.812z"/>
				<polygon style="opacity:0.33;fill:#E48771;" points="277.485,320.52 274.25,298.103 277.745,299.611 				"/>
				<path style="opacity:0.5;fill:#E48C77;" d="M301.236,233.5c-0.169,0-0.335-0.086-0.429-0.242
					c-0.143-0.236-0.066-0.544,0.17-0.687l7.412-4.471c0.236-0.144,0.544-0.067,0.686,0.17c0.143,0.236,0.066,0.544-0.17,0.687
					l-7.412,4.471C301.413,233.477,301.324,233.5,301.236,233.5z"/>
				<path style="opacity:0.5;fill:#E48C77;" d="M305.868,239.588c-0.169,0-0.335-0.086-0.429-0.242
					c-0.143-0.236-0.066-0.544,0.17-0.686l7.412-4.471c0.237-0.144,0.543-0.067,0.686,0.17c0.143,0.236,0.066,0.544-0.17,0.686
					l-7.412,4.471C306.045,239.565,305.956,239.588,305.868,239.588z"/>
			</g>
			<g>
				<path style="fill:#E5918A;" d="M258.37,304.032L258.37,304.032c7.066-5.216,12.899-9.917,12.899-9.917
					c-13.748-33.199-35.603-32.994-35.603-32.994c0.001,0.002,0.001,0.005,0.002,0.007c-3.915-1.058-8.486-1.498-13.711-1.456
					l-43.437,0.351c-7.904,0.064-14.832,4.547-18.874,11.305l-26.232,32.792c-4.246,5.308-2.43,13.188,3.71,16.102l0.969,0.46
					l18.288,8.68l0.588,53.84l97.554-0.842l2.104-32.376l5.383-8.518c3.972-6.285,4.798-14.357,2.197-21.469L258.37,304.032z"/>
				<path style="opacity:0.57;fill:#CC726D;" d="M252.604,288.263l5.766,15.768c7.066-5.216,12.899-9.917,12.899-9.917
					c-13.748-33.199-35.603-32.994-35.603-32.994c0.001,0.002,0.001,0.005,0.002,0.007
					C246.701,264.109,252.473,272.044,252.604,288.263z"/>
				<path style="fill:#FFFFFF;" d="M228.209,259.847c0.239-4.716-0.979-8.684-0.979-8.684l0,0c-9.127,0-16.605,7.012-17.369,15.941
					l-0.058,0.023c-0.753-8.94-8.235-15.964-17.37-15.964c0,0-1.077,3.526-1.003,7.878l-0.054-0.025l0.181,4.333l22.609,56.922
					c0.496,1.257,2.325,1.091,2.587-0.235l11.91-60.369L228.209,259.847z"/>
				<path style="opacity:0.71;fill:#CC726D;" d="M182.471,323.706l-3.173,12.419c-0.502,1.965-2.611,3.048-4.501,2.311l-6.091-2.377
					l-3.412,14.588l6-10.118l5.44,2.396c2.154,0.949,4.595-0.539,4.739-2.889L182.471,323.706z"/>
			</g>
			<g>
				<g>
					<path style="fill:#F1CDBE;" d="M250.43,382.56l-4.845-13.337c-0.821-2.259-2.714-3.959-5.048-4.532l-8.41-2.066l0.083-0.214
						l-3.367-0.593l-1.44-0.354c-0.219-0.009-0.419-0.005-0.633-0.011l-61.79-10.88l1.701-6.91l2.074-8.429l-30.663-14.553
						l-12.65,45.97c-2.078,9.768,4.495,19.27,14.368,20.771l83.931-3.303c2.131-0.474,3.43-1.09,3.43-1.09l1.024,3.65
						c1.178,4.201,3.766,7.868,7.329,10.386c0.935,0.661,2.206-0.121,2.038-1.253l-2.338-15.824l3.852,13.496
						c0.367,1.286,1.374,2.29,2.661,2.654c1.441,0.408,2.858-0.716,2.789-2.212l-0.616-13.37l0.432,9.369l2.846-0.87
						C249.93,388.216,251.408,385.253,250.43,382.56z"/>
					<path style="opacity:0.32;fill:#E48C77;" d="M206.477,374.625c0.151-1.593,0.541-3.325,1.343-4.996l-0.055-0.159l-5.882,15.412
						l11.235-0.412l-0.423-0.746c-0.026-0.008-0.052-0.013-0.078-0.021C208.672,382.471,206.087,378.74,206.477,374.625z"/>
					<g>
						<path style="fill:#E48C77;" d="M245.195,389.688c0.185-0.11,0.3-0.319,0.281-0.548l-0.84-9.713
							c-0.028-0.318-0.308-0.554-0.628-0.527c-0.32,0.029-0.554,0.308-0.527,0.628l0.84,9.712c0.028,0.318,0.308,0.554,0.628,0.527
							C245.039,389.76,245.123,389.732,245.195,389.688z"/>
						<path style="fill:#E48C77;" d="M237.28,381.143c0.211-0.126,0.326-0.376,0.268-0.629c-0.072-0.311-0.383-0.506-0.696-0.434
							c0,0-1.149,0.266-2.427,0.588c-0.316,0.079-0.499,0.394-0.421,0.703c0.077,0.311,0.392,0.499,0.703,0.421
							c1.267-0.318,2.405-0.581,2.408-0.581C237.174,381.195,237.229,381.173,237.28,381.143z"/>
						<path style="fill:#E48C77;" d="M245.307,379.314c0.211-0.126,0.326-0.376,0.268-0.629c-0.072-0.311-0.383-0.506-0.696-0.434
							c0,0-1.149,0.266-2.426,0.587c-0.308,0.076-0.499,0.392-0.421,0.703c0.077,0.311,0.392,0.499,0.703,0.421
							c1.266-0.317,2.404-0.58,2.407-0.581C245.201,379.366,245.256,379.344,245.307,379.314z"/>
						<path style="fill:#E48C77;" d="M227.966,384.029c0.224-0.133,0.337-0.405,0.258-0.665c-0.263-0.87-0.251-2.076-0.252-2.087
							c0.004-0.32-0.252-0.584-0.571-0.587c-0.321-0.004-0.583,0.253-0.587,0.571c0,0.057-0.015,1.395,0.3,2.438
							c0.093,0.307,0.417,0.48,0.722,0.388C227.883,384.071,227.926,384.052,227.966,384.029z"/>
					</g>
				</g>
				<polyline style="opacity:0.32;fill:#E48C77;" points="164.981,350.572 149.328,349.592 166.681,343.662 				"/>
			</g>
		</g>
	</g>
	<g>
		<g>
			<g>
				<path style="fill:#FFFFFF;" d="M381.709,213.497h187.698c7.911,0,14.325-6.413,14.325-14.325V61.742H367.384v137.431
					C367.384,207.084,373.798,213.497,381.709,213.497z"/>
				<g>
					<path style="fill:#E5918A;" d="M372.187,47.169l115.591-0.179c0.473-0.001,0.93,0.051,1.367,0.139l89.754-0.139
						c2.95-0.005,5.344,1.834,5.347,4.106l0.019,12.105l-91.121-0.24l0,0.24l-126.273-0.333l-0.018-11.576
						C366.849,49.019,369.238,47.173,372.187,47.169z"/>
					<path style="fill:#FFFFFF;" d="M574.887,57.959c-0.648,0-1.256-0.251-1.713-0.706c-0.459-0.456-0.712-1.064-0.713-1.713
						c-0.001-1.335,1.084-2.424,2.419-2.426h0.001c1.336,0,2.425,1.085,2.426,2.419c0.001,0.646-0.25,1.254-0.708,1.713
						C576.141,57.706,575.533,57.958,574.887,57.959z M574.883,53.614l-0.001,0.5c-0.784,0.001-1.422,0.641-1.421,1.425
						c0.001,0.381,0.15,0.738,0.418,1.005c0.54,0.537,1.477,0.533,2.012-0.004c0.269-0.27,0.417-0.626,0.416-1.005
						c-0.001-0.784-0.64-1.421-1.424-1.421V53.614z"/>
					<path style="fill:#FFFFFF;" d="M565.146,57.975c-1.339,0-2.426-1.085-2.427-2.419c0-1.335,1.085-2.423,2.418-2.426h0.004
						c1.334,0,2.421,1.085,2.424,2.419C567.566,56.885,566.481,57.973,565.146,57.975z M565.139,53.629l0.001,0.5
						c-0.783,0.002-1.42,0.641-1.42,1.425c0.001,0.783,0.639,1.42,1.423,1.42c0.786-0.001,1.424-0.64,1.423-1.424
						c-0.001-0.783-0.641-1.421-1.424-1.421L565.139,53.629z"/>
					<path style="fill:#FFFFFF;" d="M555.588,57.99c-1.338,0-2.425-1.085-2.426-2.42c-0.001-0.646,0.25-1.255,0.706-1.713
						c0.458-0.458,1.066-0.711,1.714-0.712l0,0c1.336,0,2.425,1.085,2.426,2.419C558.009,56.899,556.924,57.987,555.588,57.99z
						 M555.584,53.645l-0.002,0.5c-0.379,0-0.736,0.149-1.006,0.418c-0.268,0.269-0.415,0.626-0.414,1.005
						c0.001,0.784,0.639,1.421,1.422,1.421c0.787-0.001,1.425-0.641,1.424-1.425c-0.001-0.783-0.64-1.42-1.424-1.42V53.645z"/>
				</g>
			</g>
			<g>
				<rect x="380.275" y="77.304" style="opacity:0.81;fill:#F7ECE4;" width="184.269" height="119.108"/>
				<g style="opacity:0.65;">
					<g>
						<rect x="483.849" y="92.359" style="fill:#FFFFFF;" width="32.27" height="32.27"/>
						<g style="opacity:0.81;">
							<rect x="489.879" y="98.389" style="fill:#ECF1F7;" width="20.21" height="20.21"/>
						</g>
						<g>
							<path style="fill:#FFFFFF;" d="M524.294,83.139v19.614h19.614V83.139H524.294z M539.268,98.113h-10.334V87.779h10.334V98.113
								z"/>
						</g>
						<g>
							<path style="fill:#FFFFFF;" d="M497.07,131.246v20.403h20.403v-20.403H497.07z M512.852,147.029H501.69v-11.162h11.162
								V147.029z"/>
						</g>
						<g>
							<path style="fill:#FFFFFF;" d="M526.626,110.336v46.899h30.113v-46.899H526.626z M552.8,151.099h-22.234v-34.627H552.8
								V151.099z"/>
						</g>
					</g>
				</g>
			</g>
		</g>
		<g>
			<g>
				<g>
					<g>
						<g>
							<g>
								<g>
									<g>
										<g>
											<g>
												<path style="fill:#9D9DD9;" d="M440.757,129.085c8.97-1.619,17.939-3.239,26.909-4.858
													c12.647-2.283,28.972-8.75,40.799-1.983c6.536,3.739,11.395,9.805,15.637,16.026
													c15.485,22.711,22.349,49.073,31.192,74.729c0,0-150.907,3.206-152.1-0.282c-1.325-3.874-1.603-8.089-0.709-12.241
													l7.583-35.196C406.035,142.65,417.156,133.346,440.757,129.085z"/>
											</g>
										</g>
									</g>
								</g>
							</g>
						</g>
					</g>
					<polygon style="fill:#8585C1;" points="518.353,213.706 504,160.647 510.412,213.353 					"/>
				</g>
				<g>
					<path style="fill:#B16E5F;" d="M540.225,192.985l-12.07,3.12c-2.138,0.553-3.861,2.132-4.599,4.213l-4.352,12.282
						c-0.877,2.475,0.509,5.178,3.031,5.911l2.629,0.764l0.322-8.592l-0.46,12.262c-0.051,1.372,1.261,2.384,2.584,1.993l0,0
						c1.181-0.349,2.1-1.282,2.427-2.465l3.437-12.416l-2.025,14.532c-0.145,1.04,1.031,1.74,1.886,1.124l0,0
						c3.259-2.351,5.611-5.744,6.662-9.608l0.913-3.358c0,0,6.434,2.962,13.97,0.247c3.267-1.177,5.324-4.385,5.041-7.846
						C559.173,199.67,555.77,192.153,540.225,192.985z"/>
					<g>
						<path style="fill:#955045;" d="M524.078,219.07c-0.171-0.099-0.279-0.288-0.263-0.499l0.695-8.912
							c0.023-0.292,0.279-0.512,0.573-0.491c0.295,0.022,0.513,0.275,0.49,0.569l-0.695,8.912c-0.023,0.292-0.279,0.512-0.574,0.491
							C524.222,219.134,524.146,219.109,524.078,219.07z"/>
						<path style="fill:#955045;" d="M531.294,211.141c-0.195-0.113-0.303-0.341-0.252-0.573c0.064-0.286,0.348-0.468,0.637-0.406
							c0,0,1.059,0.23,2.239,0.509c0.291,0.068,0.463,0.355,0.393,0.639c-0.069,0.286-0.357,0.462-0.643,0.394
							c-1.168-0.276-2.218-0.503-2.22-0.503C531.392,211.188,531.341,211.168,531.294,211.141z"/>
						<path style="fill:#955045;" d="M523.893,209.563c-0.195-0.113-0.303-0.341-0.252-0.573c0.064-0.286,0.348-0.468,0.637-0.406
							c0,0,1.059,0.23,2.238,0.508c0.284,0.066,0.462,0.353,0.393,0.639c-0.069,0.286-0.357,0.462-0.643,0.394
							c-1.167-0.275-2.217-0.503-2.219-0.503C523.991,209.61,523.94,209.59,523.893,209.563z"/>
						<path style="fill:#955045;" d="M539.889,213.673c-0.207-0.119-0.313-0.367-0.243-0.607c0.235-0.8,0.215-1.905,0.215-1.916
							c-0.006-0.293,0.227-0.538,0.521-0.545c0.295-0.007,0.539,0.225,0.545,0.516c0.001,0.052,0.025,1.278-0.257,2.238
							c-0.083,0.282-0.38,0.445-0.662,0.364C539.965,213.711,539.925,213.694,539.889,213.673z"/>
					</g>
				</g>
				<g>
					<g>
						<path style="fill:#B16E5F;" d="M410.562,162.671c0,0-3.479-9.896-5.91-15.756c-0.032-2.975-1.115-5.851-3.09-8.098
							l-0.643-0.731l-1.967-2.238c0,0-3.154-3.452-2.182-8.346c0.971-4.894-8.093-3.17-7.658,3.837
							c0.435,7.007-0.724,7.526-0.724,7.526s-0.269,0.505-1.5,1.025l-5.892,1.078c-2.097,0.135-4.174,0.574-6.017,1.101
							l-16.762,3.067c-1.116,0.216-1.688,1.467-1.122,2.453l0.918,1.598c0.815,1.419,2.361,2.255,3.994,2.162l10.313-0.59
							c-1.495,0.795-2.252,2.565-1.707,4.229l0.187,0.57c0.599,1.828,2.566,2.825,4.394,2.226l5.601-1.834l-4.069,1.333
							c-1.533,0.502-2.369,2.152-1.867,3.685l0.142,0.433c0.681,2.079,2.919,3.213,4.998,2.532l2.951-0.966l-1.13,0.37
							c-0.66,0.216-1.02,0.926-0.803,1.586c0.742,2.265,3.178,3.5,5.443,2.758l1.415-0.463l0.596,2.775L410.562,162.671z"/>
						<path style="fill:#955045;" d="M372.321,151.259c-0.234,0-0.444-0.165-0.49-0.404c-0.053-0.271,0.124-0.534,0.395-0.586
							l8.649-1.685c0.267-0.051,0.533,0.124,0.587,0.395c0.053,0.271-0.125,0.534-0.395,0.587l-8.649,1.685
							C372.385,151.256,372.352,151.259,372.321,151.259z"/>
						<path style="fill:#955045;" d="M376.117,158.044c-0.228,0-0.434-0.157-0.487-0.388c-0.062-0.269,0.106-0.537,0.375-0.599
							l6.53-1.5c0.277-0.067,0.538,0.107,0.6,0.376c0.061,0.269-0.107,0.537-0.375,0.599l-6.53,1.5
							C376.191,158.04,376.153,158.044,376.117,158.044z"/>
					</g>
					<g>
						<g>
							<g>
								<g>
									<path style="fill:#8585C1;" d="M385.518,175.136l3.266,32.133c0.357,3.512,3.268,6.209,6.798,6.289
										c11.591,0.262,35.442,0.735,35.293,0.181c-0.72-2.685-1.412-5.185-1.974-7.379c-2.266-8.84-4.531-17.681-6.797-26.522
										c-0.922-3.596-2.565-10.436-4.009-16.379c-1.059-4.359-5.886-6.608-9.905-4.618l-18.815,9.316
										C386.76,169.452,385.223,172.233,385.518,175.136z"/>
								</g>
							</g>
						</g>
						<g>
							<g>
								<g>
									<path style="fill:#9D9DD9;" d="M383.716,175.946l3.202,31.503c0.35,3.443,3.204,6.087,6.664,6.165
										c11.364,0.257,34.746,0.72,34.601,0.177c-0.706-2.633-1.384-5.084-1.936-7.234c-2.221-8.667-4.442-17.334-6.663-26.001
										c-0.903-3.525-2.515-10.232-3.93-16.058c-1.038-4.273-5.77-6.478-9.711-4.527l-18.445,9.133
										C384.933,170.373,383.426,173.1,383.716,175.946z"/>
								</g>
							</g>
						</g>
					</g>
				</g>
			</g>
			<g>
				<g>
					<g>
						<path style="fill:#33002B;" d="M481.184,80.359L478.71,62.62c0.036-5.366-0.504-9.698-1.98-11.669
							c-7.022-11.082-20.026-17.722-33.898-15.947c-19.106,2.444-32.613,19.913-30.169,39.019l1.07,8.367
							c0.208,1.622,0.612,3.168,1.157,4.639l-4.382,13.831c-2.853,13.383,7.943,21.068,14.401,21.535
							c9.043,0.654,11.616,7.165,13.779,11.681c0.723-0.16,1.452-0.31,2.188-0.439l23.769-16.754
							c0.399-0.028,1.76-20.032,1.76-20.032c2.262-0.289,4.369-0.977,6.292-1.954c-0.045,0.983-0.108,1.968-0.214,2.957
							c-1.108,10.349,0.808,4.843,2.8-5.532C479.389,89.989,481.877,85.322,481.184,80.359z"/>
						<g>
							<g>
								<g>
									<path style="fill:#B16E5F;" d="M475.065,96.156l-0.196-1.406l3.891-0.543c4.272-0.596,7.253-4.542,6.657-8.815l-0.21-1.509
										c-0.596-4.272-4.542-7.252-8.815-6.657l-3.863,0.539l-1.035,1.4l-0.05-4.898c-28.608,2.559-43.158-8.915-43.158-8.915
										s0.009,0.221,0.013,0.442c0.104,5.922-2.254,12.66-4.087,16.977l2.535,18.176c1.154,8.271,6.654,14.854,13.868,17.795
										c0.601,0.245,1.209,0.473,1.832,0.666c0.849,0.433,1.726,0.813,2.628,1.137l0.725,6.946
										c0.807,7.727,8.479,13.317,17.05,12.422c8.571-0.895,14.924-7.949,14.117-15.676l-0.111-1.058l-2.025-19.399
										C475.327,101.336,475.43,98.768,475.065,96.156z"/>
								</g>
							</g>
							<g>
								<path style="fill:#955045;" d="M479.124,88.393c-0.095,0-0.19-0.027-0.275-0.083l-2.705-1.785l2.682-4.094
									c0.151-0.232,0.462-0.295,0.692-0.145c0.23,0.151,0.295,0.461,0.144,0.692l-2.135,3.26l1.873,1.236
									c0.23,0.152,0.294,0.462,0.142,0.693C479.445,88.314,479.286,88.393,479.124,88.393z"/>
								<g>
									<g>
										<g>
											<path style="opacity:0.57;fill:#955045;" d="M444.537,109.403c-0.121,0-0.243-0.044-0.339-0.132
												c-0.203-0.187-0.216-0.503-0.028-0.707c1.65-1.792,3.974-1.429,4.97-0.987c0.252,0.112,0.364,0.406,0.254,0.658
												c-0.11,0.252-0.404,0.367-0.658,0.256c-0.092-0.04-2.257-0.956-3.831,0.75
												C444.807,109.349,444.672,109.403,444.537,109.403z"/>
										</g>
									</g>
									<g>
										<g>
											<g>
												<g>
													<g>
														<path style="fill:#33002B;" d="M457.129,80.704c-0.643,0.245-1.457,0.124-2.25,0.052
															c-2.298-0.193-1.599-0.158-2.298-0.193c-0.701-0.036-1.506-0.048-2.307-0.041c-0.796-0.009-1.62,0.028-2.23-0.28
															c-0.589-0.289-0.801-1.04-0.049-1.914c0.708-0.851,2.499-1.725,4.817-1.613c2.315,0.123,3.991,1.173,4.593,2.091
															C458.048,79.751,457.749,80.476,457.129,80.704z"/>
													</g>
												</g>
												<g>
													<g>
														<path style="fill:#33002B;" d="M428.263,85.412c0.683,0.097,1.449-0.2,2.206-0.444
															c0.757-0.262,1.524-0.506,2.197-0.694c0.675-0.189,1.458-0.379,2.241-0.547c0.774-0.184,1.587-0.329,2.112-0.764
															c0.51-0.411,0.547-1.19-0.383-1.876c-0.882-0.674-2.824-1.132-5.06-0.512c-2.229,0.629-3.628,2.021-4.009,3.049
															C427.153,84.685,427.607,85.326,428.263,85.412z"/>
													</g>
												</g>
											</g>
										</g>
									</g>
								</g>
								<path style="fill:#33002B;" d="M450.63,87.781c-0.157,0-0.313-0.075-0.41-0.214c-0.158-0.227-0.103-0.539,0.124-0.696
									c2.151-1.498,4.064-0.584,4.145-0.546c0.248,0.122,0.35,0.422,0.228,0.669c-0.121,0.248-0.421,0.35-0.667,0.229
									c-0.073-0.034-1.493-0.675-3.133,0.468C450.829,87.752,450.729,87.781,450.63,87.781z"/>
								<path style="fill:#33002B;" d="M433.124,89.023c-0.281,0.899,0.22,1.857,1.119,2.138s1.857-0.22,2.138-1.119
									c0.281-0.899-0.22-1.857-1.119-2.138C434.362,87.622,433.405,88.123,433.124,89.023z"/>
								<path style="fill:#955045;" d="M433.221,92.348c-0.157,0-0.314-0.075-0.41-0.214c-0.158-0.226-0.102-0.538,0.124-0.696
									c2.15-1.498,4.064-0.585,4.145-0.546c0.248,0.122,0.35,0.421,0.229,0.669c-0.122,0.247-0.42,0.348-0.667,0.229
									c-0.063-0.029-1.486-0.683-3.135,0.467C433.42,92.319,433.319,92.348,433.221,92.348z"/>
								<g>
									<g>
										<path style="fill:#FFFFFF;" d="M457.254,93.295c0,0-3.254,3.102-6.893,5.076c-3.638,1.974,0.819,6.452,6.442,3.723
											C462.426,99.363,460.176,91.495,457.254,93.295z"/>
									</g>
								</g>
								<path style="fill:#955045;" d="M443.505,97.49c-0.741,0-1.461-0.237-2.066-0.688c-0.743-0.554-1.227-1.365-1.361-2.283
									l-0.202-1.382c-0.167-1.147,0.63-2.217,1.777-2.384l0.446-0.065l-0.919-6.291c-0.039-0.273,0.149-0.527,0.423-0.567
									c0.267-0.044,0.526,0.149,0.567,0.422l1.064,7.282l-1.437,0.209c-0.292,0.042-0.549,0.196-0.725,0.432
									c-0.177,0.236-0.25,0.527-0.207,0.818l0.202,1.382c0.095,0.653,0.439,1.231,0.969,1.625
									c0.528,0.394,1.179,0.558,1.834,0.464l2.734-0.399c0.265-0.044,0.526,0.148,0.567,0.422
									c0.039,0.274-0.149,0.527-0.423,0.567l-2.734,0.399C443.845,97.478,443.674,97.49,443.505,97.49z"/>
							</g>
							<path style="opacity:0.55;fill:#955045;" d="M452.243,120.202L452.243,120.202c-3.384,0.472-6.696,0.164-9.759-0.78
								c0.841,0.427,1.707,0.807,2.6,1.127c1.674,3.744,5.355,6.419,9.731,6.578c5.817,0.211,10.743-4.092,11.422-9.77
								c6.36-4.775,10.005-12.767,8.828-21.202l-0.196-1.406l-3.314,0.462C472.977,107.374,464.431,118.502,452.243,120.202z"/>
						</g>
					</g>
				</g>
				<g>
					<path style="fill:#8585C1;" d="M443.569,125.68l18.529,10.95c1.154,0.682,1.555,1.913,0.97,2.979l-5.924,10.791
						c-0.959,1.747-3.751,2.112-5.286,0.691l-16.036-14.842c-0.166-0.154-0.336-0.467-0.493-0.871
						c-0.931-2.383-0.216-5.008,1.741-6.927l1.664-1.631C439.506,125.269,441.913,124.701,443.569,125.68z"/>
					<path style="fill:#8585C1;" d="M476.839,121.375l-13.838,15.137c-0.862,0.943-0.812,2.219,0.121,3.089l9.448,8.803
						c1.529,1.425,4.322,1.067,5.288-0.677l10.09-18.223c0.105-0.189,0.154-0.541,0.161-0.982c0.037-2.632-1.701-5.052-4.419-6.383
						l-1.835-0.899C480.573,119.955,478.076,120.022,476.839,121.375z"/>
					<g>
						<g>
							<path style="fill:#DFE0FC;" d="M453.218,148.605c-1.223,0-2.303-0.772-2.497-1.845c-0.095-0.53,0.035-1.069,0.365-1.521
								c0.397-0.541,1.044-0.905,1.776-1c1.368-0.172,2.659,0.64,2.872,1.822v0c0.095,0.529-0.035,1.069-0.366,1.521
								c-0.396,0.541-1.043,0.905-1.776,0.999C453.467,148.598,453.341,148.605,453.218,148.605z M453.235,145.215
								c-0.081,0-0.162,0.005-0.244,0.016c-0.463,0.06-0.863,0.278-1.099,0.599c-0.118,0.162-0.247,0.423-0.188,0.752
								c0.118,0.654,0.925,1.114,1.759,1.006c0.463-0.06,0.863-0.278,1.099-0.599c0.118-0.161,0.247-0.423,0.188-0.752
								C454.644,145.648,453.977,145.215,453.235,145.215z"/>
							<path style="fill:#DFE0FC;" d="M458.275,160.324c-0.237,0-0.447-0.169-0.491-0.412l-1.213-6.744
								c-0.041-0.079-0.43-0.278-1.034-0.197c-0.891,0.115-1.634-0.255-1.743-0.858l-1.011-5.62
								c-0.049-0.271,0.132-0.532,0.403-0.581c0.274-0.051,0.531,0.131,0.581,0.404l1.011,5.62c0.01-0.011,0.171,0.056,0.433,0.056
								c0.061,0,0.127-0.004,0.197-0.013c1.099-0.14,2.018,0.294,2.147,1.012l1.213,6.745c0.049,0.271-0.132,0.532-0.403,0.581
								C458.335,160.321,458.305,160.324,458.275,160.324z"/>
							<path style="fill:#DFE0FC;" d="M475.111,145.773c-1.224,0-2.303-0.772-2.496-1.846l0,0c-0.096-0.529,0.034-1.069,0.364-1.52
								c0.397-0.541,1.044-0.906,1.776-1.001c1.382-0.174,2.659,0.64,2.873,1.821c0.095,0.529-0.035,1.069-0.365,1.521
								c-0.397,0.541-1.044,0.905-1.776,1C475.361,145.765,475.235,145.773,475.111,145.773z M475.13,142.383
								c-0.081,0-0.163,0.005-0.245,0.016c-0.463,0.06-0.863,0.278-1.098,0.599c-0.118,0.161-0.247,0.423-0.188,0.751v0.001
								c0.117,0.654,0.926,1.115,1.759,1.007c0.463-0.06,0.863-0.278,1.099-0.6c0.118-0.161,0.247-0.423,0.188-0.752
								C476.538,142.816,475.872,142.383,475.13,142.383z"/>
							<path style="fill:#DFE0FC;" d="M475.017,158.158c-0.237,0-0.447-0.169-0.491-0.412l-1.213-6.744
								c-0.049-0.271,0.02-0.544,0.198-0.788c0.292-0.399,0.866-0.689,1.535-0.776c0.348-0.044,0.528-0.185,0.556-0.232l-1.02-5.534
								c-0.049-0.271,0.132-0.532,0.403-0.581c0.274-0.048,0.531,0.131,0.581,0.404l1.011,5.62c0.042,0.234-0.018,0.478-0.171,0.686
								c-0.238,0.325-0.698,0.559-1.232,0.629c-0.561,0.072-0.855,0.324-0.878,0.412l1.213,6.728
								c0.049,0.271-0.132,0.532-0.403,0.581C475.076,158.155,475.046,158.158,475.017,158.158z"/>
						</g>
					</g>
				</g>
				<path style="fill:#33002B;" d="M506.289,103.971l-10.278-15.124c0.127-1.973,0.058-3.985-0.276-6.019l-1.724-10.491
					c-3.936-23.955-26.547-40.183-50.502-36.247c-17.394,2.858-15.107,35.627-15.211,29.704c-0.004-0.221-0.013-0.442-0.013-0.442
					s14.549,11.475,43.158,8.915l0.05,4.898l1.035-1.4l3.863-0.539c4.272-0.596,8.219,2.384,8.815,6.656l0.21,1.509
					c0.596,4.272-2.384,8.219-6.657,8.815l-3.891,0.543l0.196,1.406c0.364,2.612,0.262,5.18-0.236,7.625l1.529,14.648
					c0.329,3.151,0.2,6.332-0.383,9.446l0,0c-1.686,9.005,0.815,18.329,6.915,25.165c0.007,0.007,0.014,0.016,0.021,0.024
					c2.053,2.339,5.894,0.931,5.921-2.181c0.055-6.258,1.014-13.131,7.827-15.713C504.291,132.278,514.559,119.106,506.289,103.971z
					"/>
			</g>
		</g>
	</g>
	<g>
		<g>
			<g>
				<g>
					<path style="fill:#81808E;" d="M625.555,241.588h-10.042c3.001,0,5.354,2.591,5.077,5.579l-0.026,0.225l-16.936,177.62H490.667
						c4.018,0,7.275,3.257,7.275,7.275v13.767h121.203v-13.767c0-3.403-2.34-6.252-5.497-7.047l16.957-177.848l0.026-0.225
						C630.91,244.179,628.556,241.588,625.555,241.588z"/>
					<path style="fill:#B4BCC9;" d="M490.667,425.012H335.703h-99.765c-3.693,0-6.687,2.994-6.687,6.687v14.355h268.692v-13.767
						C497.942,428.269,494.685,425.012,490.667,425.012z"/>
				</g>
				<path style="fill:#D3D6DD;" d="M620.564,247.392l0.026-0.225c0.278-2.988-2.076-5.579-5.077-5.579H361.247h-10.042
					c-2.631,0-4.825,1.996-5.077,4.614l-17.055,178.81h6.629h267.925L620.564,247.392z"/>
				<g>
					<path style="fill:#ECF1F7;" d="M402.347,436.533h-64.952c-2.367,0-4.293-1.926-4.293-4.293v-7.228h2v7.228
						c0,1.265,1.029,2.293,2.293,2.293h64.952c1.265,0,2.294-1.028,2.294-2.293v-7.228h2v7.228
						C406.641,434.607,404.715,436.533,402.347,436.533z"/>
					<path style="fill:#ECF1F7;" d="M602.602,440.003c-2.608,0-4.73-2.122-4.73-4.729c0-2.608,2.122-4.73,4.73-4.73
						c2.608,0,4.73,2.122,4.73,4.73C607.332,437.881,605.21,440.003,602.602,440.003z M602.602,432.543
						c-1.506,0-2.73,1.225-2.73,2.73c0,1.505,1.225,2.729,2.73,2.729c1.506,0,2.73-1.225,2.73-2.729
						C605.332,433.768,604.107,432.543,602.602,432.543z"/>
				</g>
			</g>
			<g>
				<g>
					<g>
						<path style="fill:#FFFFFF;" d="M588.983,411.779H346.794c-1.733,0-3.089-1.427-2.925-3.077l14.411-144.521
							c0.144-1.442,1.41-2.544,2.925-2.544h242.189c1.733,0,3.089,1.427,2.925,3.077l-14.411,144.521
							C591.764,410.678,590.498,411.779,588.983,411.779z"/>
						<g>
							<g>
								<path style="fill:#E5918A;" d="M356.794,276.771l248.351,0.658l1.402-12.931c0.161-1.482-1.302-2.754-3.154-2.741
									l-240.98-0.345c-2.322,0-4.132,0.904-4.132,2.77L356.794,276.771z"/>
								<path style="fill:#E5918A;" d="M605.593,277.93l-0.449-0.001l-248.912-0.66l1.552-13.146
									c-0.003-1.004,0.492-1.872,1.428-2.451c0.804-0.497,1.909-0.76,3.196-0.76c0.001,0,0.003,0,0.004,0l240.982,0.345
									c0.01,0,0.02,0,0.031,0c1.153,0,2.213,0.439,2.907,1.206c0.54,0.598,0.793,1.34,0.712,2.089L605.593,277.93z
									 M357.356,276.272l247.34,0.655l1.354-12.483c0.063-0.592-0.215-1.039-0.46-1.311c-0.497-0.55-1.308-0.877-2.171-0.877
									c-0.008,0-0.015,0-0.022,0l-240.985-0.345c-0.001,0-0.002,0-0.004,0c-1.101,0-2.024,0.211-2.669,0.61
									c-0.636,0.393-0.958,0.951-0.958,1.659L357.356,276.272z"/>
							</g>
							<path style="fill:#ECF1F7;" d="M593.641,272.326c-1.37,0-2.485-1.115-2.485-2.485c0-1.37,1.115-2.485,2.485-2.485
								c1.37,0,2.485,1.115,2.485,2.485C596.126,271.211,595.011,272.326,593.641,272.326z M593.641,268.105
								c-0.957,0-1.735,0.778-1.735,1.735c0,0.957,0.778,1.735,1.735,1.735c0.957,0,1.735-0.778,1.735-1.735
								C595.376,268.884,594.598,268.105,593.641,268.105z"/>
							<path style="fill:#ECF1F7;" d="M585.802,272.326c-1.37,0-2.485-1.115-2.485-2.485c0-1.37,1.115-2.485,2.485-2.485
								c1.37,0,2.485,1.115,2.485,2.485C588.287,271.211,587.172,272.326,585.802,272.326z M585.802,268.105
								c-0.957,0-1.735,0.778-1.735,1.735c0,0.957,0.778,1.735,1.735,1.735c0.957,0,1.735-0.778,1.735-1.735
								C587.537,268.884,586.759,268.105,585.802,268.105z"/>
							<path style="fill:#ECF1F7;" d="M578.566,272.326c-1.371,0-2.486-1.115-2.486-2.485c0-1.37,1.115-2.485,2.486-2.485
								c1.37,0,2.485,1.115,2.485,2.485C581.052,271.211,579.936,272.326,578.566,272.326z M578.566,268.105
								c-0.957,0-1.736,0.778-1.736,1.735c0,0.957,0.779,1.735,1.736,1.735c0.957,0,1.735-0.778,1.735-1.735
								C580.302,268.884,579.523,268.105,578.566,268.105z"/>
						</g>
					</g>
					<path style="fill:#9D9DD9;" d="M594.264,288.992l-5.23,1.395c-0.097,0.026-0.165,0.114-0.165,0.215v-2.762
						c0-0.972-0.788-1.76-1.76-1.76h-15.776c-0.972,0-1.76,0.788-1.76,1.76v11.615c0,0.972,0.788,1.76,1.76,1.76h15.776
						c0.972,0,1.76-0.788,1.76-1.76v-2.762c0,0.101,0.068,0.189,0.165,0.215l5.23,1.395c0.141,0.038,0.28-0.069,0.28-0.215v-8.879
						C594.544,289.061,594.405,288.955,594.264,288.992z"/>
				</g>
				<g>
					<path style="fill:#B7D0F9;" d="M570.07,247.917h-20.179c-0.644,0-1.261,0.262-1.708,0.726l-5.02,5.211
						c-0.584,0.607-1.61,0.193-1.61-0.65v-7.906v-19.826c0-2.795,2.266-5.061,5.061-5.061h24.259c2.275,0,4.119,1.844,4.119,4.119
						v18.465C574.991,245.713,572.788,247.917,570.07,247.917z"/>
					<path style="fill:#FFFFFF;" d="M552.198,234.775c0,0.954-0.773,1.728-1.728,1.728c-0.954,0-1.728-0.774-1.728-1.728
						c0-0.954,0.774-1.728,1.728-1.728C551.425,233.047,552.198,233.821,552.198,234.775z"/>
					<path style="fill:#FFFFFF;" d="M560.296,234.775c0,0.954-0.774,1.728-1.728,1.728c-0.954,0-1.728-0.774-1.728-1.728
						c0-0.954,0.774-1.728,1.728-1.728C559.523,233.047,560.296,233.821,560.296,234.775z"/>
					<path style="fill:#FFFFFF;" d="M568.584,234.775c0,0.954-0.774,1.728-1.728,1.728c-0.954,0-1.728-0.774-1.728-1.728
						c0-0.954,0.773-1.728,1.728-1.728C567.811,233.047,568.584,233.821,568.584,234.775z"/>
				</g>
			</g>
		</g>
		<g>
			<g>
				<g>
					<path style="fill:#3B3348;" d="M576.3,387.587l-7.854-31.648l0.024,0.002l-0.105-0.327l-0.382-1.537l-0.154-0.133
						l-24.569-76.664c-1.988-11.997-14.497-21.245-29.642-21.245h-58.941c-26.157,0-47.361,17.425-47.361,38.92l2.421,116.841
						h134.272l16.781-0.319C571.914,409.431,579.009,398.502,576.3,387.587z"/>
					<path style="opacity:0.61;fill:#292433;" d="M469.878,286.925l8.004-0.18c11.047-0.248,19.834-7.901,19.625-17.091
						l-0.285-12.551c-0.05-2.183-1.86-3.913-4.043-3.864l-40.092,0.91c-2.184,0.05-3.914,1.86-3.864,4.044l0.285,12.548
						C449.717,279.928,458.836,287.173,469.878,286.925z"/>
					<polygon style="opacity:0.61;fill:#292433;" points="508.267,310.173 504.353,310.529 524.706,366.882 462.534,384.882 
						469.294,385.765 530.956,370.929 					"/>
					<g>
						<path style="fill:#E8A396;" d="M463.417,385.941l-15.989,1.807c-2.832,0.32-5.32,2.026-6.638,4.553l-7.779,14.907
							c-1.569,3.007-0.285,6.714,2.807,8.106l3.218,1.449L441,405.841l-2.803,15.586c-0.314,1.744,1.181,3.275,2.942,3.014l0,0
							c1.573-0.233,2.915-1.259,3.547-2.712l6.636-15.246l-5.213,18.205c-0.373,1.303,1.003,2.41,2.207,1.777l0,0
							c4.589-2.416,8.208-6.326,10.249-11.075l1.773-4.126c0,0,9.44,6.075,21.171,1.893c2.029-0.723,3.52-2.471,3.988-4.574
							C486.946,402.068,487.211,388.015,463.417,385.941z"/>
						<g>
							<path style="fill:#E48C77;" d="M438.069,416.359c-0.201-0.157-0.304-0.419-0.246-0.685l2.498-11.263
								c0.082-0.369,0.449-0.604,0.822-0.524c0.373,0.082,0.605,0.445,0.524,0.816l-2.498,11.263
								c-0.082,0.369-0.449,0.604-0.822,0.524C438.242,416.467,438.148,416.421,438.069,416.359z"/>
							<path style="fill:#E48C77;" d="M448.723,407.53c-0.229-0.179-0.326-0.49-0.218-0.778c0.134-0.354,0.53-0.535,0.887-0.404
								c0,0,1.312,0.485,2.769,1.055c0.359,0.14,0.527,0.537,0.386,0.887c-0.139,0.353-0.54,0.526-0.893,0.387
								c-1.443-0.563-2.743-1.044-2.746-1.044C448.84,407.608,448.778,407.573,448.723,407.53z"/>
							<path style="fill:#E48C77;" d="M439.55,404.176c-0.229-0.179-0.326-0.491-0.218-0.778c0.133-0.354,0.53-0.535,0.887-0.404
								c0,0,1.312,0.485,2.768,1.054c0.351,0.135,0.527,0.535,0.386,0.887c-0.139,0.353-0.54,0.526-0.893,0.387
								c-1.442-0.562-2.742-1.043-2.745-1.043C439.666,404.254,439.605,404.219,439.55,404.176z"/>
							<path style="fill:#E48C77;" d="M459.249,412.318c-0.243-0.19-0.334-0.526-0.201-0.819c0.445-0.98,0.619-2.396,0.621-2.41
								c0.045-0.376,0.387-0.647,0.764-0.603c0.379,0.044,0.648,0.384,0.603,0.758c-0.009,0.067-0.2,1.638-0.732,2.814
								c-0.158,0.346-0.566,0.5-0.911,0.346C459.34,412.38,459.292,412.351,459.249,412.318z"/>
						</g>
					</g>
				</g>
				<g>
					<path style="fill:#33002B;" d="M512.916,189.192c-1.933-6.147-5.851-9.082-8.818-10.474
						c-3.846-10.891-13.294-12.046-13.294-12.046l-0.009,0.015c-3.272-8.273-12.532-19.149-25.361-20.262
						c-9.341-0.811-13.967,3.138-17.049,4.274c-7.256-4.061-14.396-4.254-19.601,1.304c-7.645,8.164-4.54,15.548-2.52,18.696
						c0.349,0.75,1.512,2.621,2.929,4.273c0.673,1.714,1.698,3.288,3.017,4.626c-0.293,0.917-0.518,1.868-0.643,2.857l-0.733,5.795
						c-1.098,8.687,5.054,16.62,13.741,17.719l0,0c8.687,1.098,16.62-5.053,17.719-13.741l0.733-5.795
						c0.034-0.272,0.041-0.54,0.061-0.81c2.749-0.331,5.382-1.659,7.289-3.945c0.494-0.593,0.917-1.222,1.268-1.876l7.556,0.036
						c0.249,4.934,1.26,11.372,3.277,16.719c2.043-1.576,4.67-2.409,7.446-2.126l1.975,0.202c-0.041,4.13,3.088,7.687,7.303,8.118
						c2.698,0.276,5.217-0.798,6.897-2.664c1.197,1.89,1.799,4.172,1.551,6.565l0,0c-0.588,5.689-5.706,9.826-11.429,9.242
						l-2.225-0.227l-2.312-0.236l0.13,12.874c0,0,0.364-0.267,0.975-0.747C497.563,223.803,518.296,206.299,512.916,189.192z"/>
					<path style="fill:none;" d="M493.995,215.667l2.225,0.227c5.724,0.585,10.841-3.553,11.429-9.242l0,0
						c0.589-5.689-3.574-10.775-9.298-11.359l-2.083-0.213l-0.067-0.007l-2.256,20.588L493.995,215.667z"/>
					<g>
						<path style="fill:#E8A396;" d="M498.351,195.293l-2.083-0.213l-0.067-0.007l0,0l-3.275-0.335l-3.002-0.307
							c-2.775-0.284-5.403,0.55-7.446,2.126c-2.018-5.347-3.028-11.785-3.277-16.719l-7.556-0.036
							c-0.351,0.654-0.773,1.283-1.268,1.876c-3.955,4.743-11.029,5.402-15.801,1.471c-0.926-0.763-1.693-1.644-2.306-2.601
							c-0.454-0.019-0.9-0.041-1.34-0.064c-3.47,2.895-8.247,3.988-12.746,2.68l-3.416,33.026c-0.118,1.145-0.156,2.28-0.134,3.402
							l-0.131,1.184c-0.085,0.769-0.134,1.534-0.15,2.294c-0.006,0.292,0.016,0.578,0.02,0.868c0.006,0.464,0.003,0.93,0.034,1.389
							c0.026,0.378,0.083,0.749,0.125,1.124c0.041,0.363,0.068,0.729,0.124,1.088c0.068,0.429,0.167,0.85,0.256,1.273
							c0.062,0.295,0.109,0.594,0.182,0.886c0.118,0.475,0.266,0.939,0.411,1.405c0.071,0.229,0.128,0.463,0.205,0.69
							c0.175,0.513,0.379,1.014,0.585,1.513c0.07,0.17,0.129,0.345,0.202,0.514c0.237,0.54,0.501,1.068,0.773,1.591
							c0.062,0.119,0.114,0.242,0.178,0.359c0.303,0.562,0.633,1.109,0.975,1.648c0.045,0.072,0.085,0.146,0.131,0.217
							c0.372,0.573,0.768,1.131,1.184,1.676c0.025,0.033,0.047,0.067,0.072,0.099c0.438,0.57,0.9,1.124,1.383,1.661
							c0.005,0.006,0.01,0.012,0.015,0.017c2.949,3.269,6.719,5.901,11.052,7.604l0.317,13.956
							c0.241,10.608,9.034,19.013,19.642,18.775l2.562-0.057c10.612-0.238,19.021-9.035,18.78-19.647l-0.776-34.164
							c-0.063,0.049-0.111,0.086-0.168,0.131c-0.502,0.391-0.807,0.616-0.807,0.616l-0.13-12.874l2.312,0.236l2.225,0.227
							c5.724,0.585,10.841-3.553,11.429-9.242l0,0C508.238,200.964,504.075,195.878,498.351,195.293z"/>
						<path style="opacity:0.46;fill:#E48C77;" d="M491.683,215.43l2.312,0.236l-3.201-0.327l-0.673,6.506
							c-1.572,15.192-15.236,26.241-30.521,24.679c-14.133-1.444-24.694-13.166-24.965-26.933l-0.131,1.184
							c-0.085,0.769-0.134,1.534-0.15,2.294c-0.006,0.292,0.016,0.578,0.02,0.868c0.006,0.464,0.003,0.93,0.034,1.389
							c0.026,0.378,0.083,0.749,0.125,1.124c0.041,0.363,0.068,0.729,0.124,1.088c0.068,0.429,0.167,0.85,0.256,1.273
							c0.062,0.295,0.109,0.594,0.182,0.886c0.118,0.475,0.266,0.939,0.411,1.405c0.071,0.229,0.128,0.463,0.205,0.69
							c0.175,0.513,0.379,1.014,0.585,1.513c0.07,0.17,0.129,0.345,0.202,0.514c0.237,0.54,0.501,1.068,0.773,1.591
							c0.062,0.119,0.114,0.242,0.178,0.359c0.303,0.562,0.633,1.109,0.975,1.648c0.045,0.072,0.085,0.146,0.131,0.217
							c0.372,0.573,0.768,1.131,1.184,1.676c0.025,0.033,0.047,0.067,0.072,0.099c0.438,0.57,0.9,1.124,1.383,1.661
							c0.005,0.006,0.01,0.012,0.015,0.017c2.949,3.269,6.719,5.901,11.052,7.604l0,0c0.163,0.064,0.318,0.14,0.482,0.202
							c-0.017,0.23-0.039,0.458-0.039,0.692c0,5.718,5.215,10.353,11.647,10.353S476,255.306,476,249.588
							c0-0.416-0.036-0.825-0.089-1.228c8.684-3.731,15.183-11.331,16.708-20.672c-0.502,0.391-0.807,0.616-0.807,0.616
							L491.683,215.43z"/>
					</g>
					<g>
						<path style="opacity:0.46;fill:#E48C77;" d="M434.374,223.938c-0.004-0.29-0.026-0.576-0.02-0.868
							C434.348,223.362,434.37,223.648,434.374,223.938z"/>
						<path style="opacity:0.46;fill:#E48C77;" d="M434.534,226.451c-0.043-0.375-0.099-0.746-0.125-1.124
							C434.434,225.705,434.491,226.076,434.534,226.451z"/>
						<path style="fill:#211F20;" d="M457.884,204.507c-0.081,0.931,0.612,1.752,1.549,1.833c0.937,0.081,1.763-0.608,1.844-1.54
							c0.081-0.931-0.612-1.752-1.549-1.833C458.791,202.887,457.966,203.576,457.884,204.507z"/>
						<path style="fill:#211F20;" d="M439.404,203.404c-0.082,0.931,0.612,1.752,1.549,1.833c0.937,0.081,1.763-0.608,1.844-1.54
							c0.082-0.931-0.612-1.752-1.549-1.833C440.311,201.783,439.486,202.473,439.404,203.404z"/>
						<path style="fill:#E2806D;" d="M451.275,234.896c-0.148,0-0.297-0.066-0.396-0.193c-0.071-0.093-1.796-2.258-4.407-1.381
							c-0.261,0.09-0.545-0.052-0.633-0.314c-0.088-0.262,0.053-0.545,0.315-0.633c3.289-1.106,5.496,1.689,5.518,1.717
							c0.168,0.218,0.127,0.531-0.091,0.7C451.49,234.862,451.383,234.896,451.275,234.896z"/>
						<g>
							<g>
								<g>
									<g>
										<g>
											<path style="fill:#33002B;" d="M458.941,195.878c0.676,0.633,1.749,0.908,2.771,1.232
												c1.036,0.306,2.069,0.638,2.956,0.959c0.889,0.32,1.898,0.723,2.89,1.149c0.994,0.402,2.001,0.876,2.916,0.818
												c0.88-0.046,1.526-0.852,1.034-2.307c-0.447-1.405-2.23-3.401-5.169-4.469c-2.941-1.052-5.56-0.644-6.777,0.162
												C458.283,194.239,458.286,195.279,458.941,195.878z"/>
										</g>
									</g>
								</g>
							</g>
						</g>
						<g>
							<g>
								<g>
									<g>
										<g>
											<path style="fill:#33002B;" d="M435.022,194.799c0.835,0.402,1.943,0.345,3.015,0.351
												c1.081-0.017,2.166-0.007,3.109,0.035c0.945,0.041,2.029,0.125,3.104,0.236c1.07,0.087,2.173,0.24,3.029-0.088
												c0.826-0.306,1.199-1.267,0.292-2.509c-0.85-1.208-3.152-2.581-6.279-2.725c-3.124-0.128-5.499,1.041-6.417,2.172
												C433.9,193.431,434.216,194.422,435.022,194.799z"/>
										</g>
									</g>
								</g>
							</g>
						</g>
						<path style="fill:#E2806D;" d="M500.305,209.509c-0.086,0-0.173-0.022-0.252-0.068l-3.741-2.18l3.428-5.643
							c0.146-0.236,0.454-0.311,0.688-0.167c0.236,0.143,0.31,0.451,0.168,0.687l-2.9,4.772l2.862,1.668
							c0.238,0.139,0.319,0.445,0.18,0.684C500.644,209.42,500.477,209.509,500.305,209.509z"/>
						<path style="fill:#E2806D;" d="M452.703,216.56c-0.14,0-0.277-0.002-0.413-0.006c-2.013-0.061-3.775-0.935-4.715-2.338
							c-0.707-1.056-0.854-2.278-0.415-3.44l4.168-11.037c0.097-0.258,0.382-0.39,0.645-0.291c0.258,0.098,0.389,0.386,0.291,0.645
							l-4.168,11.037c-0.322,0.852-0.212,1.751,0.311,2.53c0.761,1.136,2.224,1.845,3.913,1.895c0.947,0.03,2.003-0.05,3.134-0.235
							c0.257-0.045,0.528,0.14,0.573,0.413c0.045,0.272-0.14,0.53-0.413,0.574C454.58,216.475,453.602,216.56,452.703,216.56z"/>
						<path style="fill:#E2806D;" d="M457.864,224.281c-2.122,0-4.37-0.757-6.708-2.264c-0.232-0.15-0.3-0.459-0.15-0.691
							c0.15-0.232,0.461-0.298,0.691-0.149c2.849,1.836,5.518,2.474,7.931,1.9c3.335-0.794,5.048-3.656,5.064-3.685
							c0.142-0.24,0.45-0.318,0.685-0.178c0.238,0.14,0.318,0.446,0.179,0.684c-0.078,0.133-1.951,3.26-5.695,4.152
							C459.208,224.204,458.543,224.281,457.864,224.281z"/>
						<path style="fill:#E2806D;" d="M457.462,207.554c-0.154,0-0.307-0.071-0.404-0.206c-0.162-0.224-0.113-0.536,0.11-0.699
							c2.18-1.586,3.956-0.672,4.591,0.034c0.185,0.206,0.168,0.521-0.038,0.706c-0.202,0.185-0.518,0.169-0.703-0.035
							c-0.132-0.14-1.318-1.313-3.262,0.104C457.667,207.523,457.564,207.554,457.462,207.554z"/>
						<path style="fill:#E2806D;" d="M438.764,206.267c-0.154,0-0.307-0.071-0.404-0.206c-0.162-0.224-0.113-0.536,0.11-0.699
							c2.178-1.585,3.956-0.671,4.592,0.034c0.185,0.206,0.168,0.521-0.038,0.706c-0.202,0.184-0.517,0.169-0.703-0.034l0,0
							c-0.128-0.14-1.317-1.314-3.263,0.103C438.969,206.235,438.866,206.267,438.764,206.267z"/>
					</g>
				</g>
			</g>
			<g>
				<g>
					<path style="fill:#FFFFFF;" d="M431.289,262.915c0.502,0,0.909-0.407,0.909-0.909v-1.542c0-0.685,0.993-1.448,2.417-1.448
						h0.832c2.088,0,3.724-1.275,3.724-2.904v-0.861c0-1.603-1.608-2.859-3.66-2.859h-1.215c-1.236,0-2.097-0.644-2.097-1.222
						c0-1.006,1.37-1.857,2.993-1.857h5.529c0.502,0,0.909-0.407,0.909-0.909c0-0.502-0.407-0.909-0.909-0.909h-5.529
						c-2.698,0-4.811,1.614-4.811,3.675c0,1.705,1.72,3.04,3.915,3.04h1.215c1.054,0,1.841,0.549,1.841,1.041v0.861
						c0,0.513,0.974-0.474-1.905,1.086h-0.832c-2.375,0-4.235,1.435-4.235,3.266v1.542
						C430.38,262.508,430.787,262.915,431.289,262.915z"/>
					<path style="fill:#FFFFFF;" d="M422.245,263.155c0.502,0,0.909-0.407,0.909-0.909v-0.933c0-0.178,0.43-0.517,1.103-0.517h0.503
						c1.465,0,2.612-0.929,2.612-2.116v-0.521c0-1.171-1.13-2.089-2.574-2.089h-0.735c-0.577,0-0.909-0.288-0.909-0.38
						c0-0.311,0.565-0.764,1.451-0.764h3.345c0.502,0,0.909-0.407,0.909-0.909c0-0.502-0.407-0.909-0.909-0.909h-3.345
						c-1.834,0-3.27,1.134-3.27,2.582c0,1.233,1.198,2.198,2.727,2.198h0.735c0.459,0,0.727,0.204,0.758,0.286l-0.002,0.505
						c-0.025,0.075-0.31,0.298-0.794,0.298h-0.503c-1.638,0-2.921,1.026-2.921,2.336v0.933
						C421.336,262.748,421.743,263.155,422.245,263.155z"/>
					<g>
						<g>
							<path style="fill:#99B4DD;" d="M442.58,308.178h-21.975c-5.595,0-10.131-4.536-10.131-10.131v7.423
								c0,5.595,4.536,10.131,10.131,10.131h21.975c5.595,0,10.131-4.536,10.131-10.131v-7.423
								C452.711,303.642,448.175,308.178,442.58,308.178z"/>
							<path style="fill:#B7D0F9;" d="M446.684,265.94h-28.513c-4.252,0-7.698,3.447-7.698,7.698v24.409
								c0,5.595,4.536,10.131,10.131,10.131h21.975c5.595,0,10.131-4.536,10.131-10.131v-26.08
								C452.711,268.638,450.013,265.94,446.684,265.94z"/>
						</g>
					</g>
				</g>
				<g>
					<path style="opacity:0.61;fill:#292433;" d="M382.775,414.055c3.438,0.76,7.034,0.938,10.567,0.988
						c4.69,0.065,9.537-0.104,13.783-2.07c4.65-2.153,8.028-6.408,9.708-11.184c1.869-5.311,0.988-10.666,0.734-16.16
						c-0.158-3.418-0.437-6.836-0.656-10.251c-0.562-8.792-1.125-17.583-1.687-26.375c-0.974-15.219-1.947-30.439-2.921-45.658
						c-0.012-0.185-0.203-3.676-0.235-3.676c-0.001,0-29.207,0.066-29.207,0.066c-2.19,9.464-4.38,18.929-6.57,28.393
						c-3.454,14.926-6.907,29.851-10.361,44.777c-0.708,3.059-1.465,6.112-2.147,9.177c-2.577,11.589,2.689,25.207,13.921,30.313
						C379.336,413.137,381.035,413.67,382.775,414.055z"/>
					<path style="fill:#3B3348;" d="M379.481,414.055c3.438,0.76,7.034,0.938,10.567,0.988c4.69,0.065,9.537-0.104,13.783-2.07
						c4.65-2.153,8.028-6.408,9.708-11.184c1.869-5.311,0.988-10.666,0.734-16.16c-0.158-3.418-0.437-6.836-0.656-10.251
						c-0.562-8.792-1.125-17.583-1.687-26.375c-0.974-15.219-1.947-30.439-2.921-45.658c-0.012-0.185-0.203-3.676-0.235-3.676
						c-0.001,0-29.207,0.066-29.207,0.066c-2.19,9.464-4.38,18.929-6.57,28.393c-3.454,14.926-6.907,29.851-10.361,44.777
						c-0.708,3.059-1.465,6.112-2.147,9.177c-2.577,11.589,2.689,25.207,13.921,30.313
						C376.042,413.137,377.741,413.67,379.481,414.055z"/>
					<g>
						<path style="fill:#E8A396;" d="M404.912,271.55c6.029-1.768,12.495-1.458,18.293,0.962c0.627,0.262,1.052,0.466,1.155,0.574
							c2.178,2.299,0.775,7.152-2.385,7.477c-0.902,0.093-9.212-2.992-9.212-2.992s5.349,0.732,8.448,4.026
							c2.131,2.265,2.481,5.684,1.062,8.451l-0.534,1.041l-0.294-0.357c-1.823-2.212-4.367-3.712-7.185-4.237l-3.26-0.607
							c0,0,11.189,2.069,11.027,7.635c-0.163,5.566-2.593,5.136-2.593,5.136s-4.645-4.625-9.998-3.409
							c0,0,15.205,1.78,12.003,10.061c-2.556,6.611-13.198,7.283-17.387,7.285c-0.969,0.001-20.481-1.303-24.034-5.042l0,0
							c-2.063-2.171-2.934-5.213-2.333-8.147l1.183-5.771c1.939-9.46,8.976-17.083,18.293-19.815L404.912,271.55z"/>
						<path style="fill:#E48771;" d="M406.582,296.191c1.013-0.39,2.194-0.574,3.327-0.591c1.145-0.018,2.29,0.132,3.397,0.424
							c0.544,0.18,1.101,0.323,1.621,0.569c0.262,0.117,0.532,0.214,0.787,0.346l0.759,0.407c0.258,0.127,0.5,0.283,0.738,0.445
							l0.721,0.474c0.465,0.34,0.908,0.711,1.364,1.063l0.042,0.032c0.229,0.177,0.558,0.136,0.736-0.091
							c0.178-0.227,0.137-0.555-0.092-0.732c-0.001-0.001-0.005-0.004-0.006-0.005c-0.487-0.366-0.961-0.747-1.459-1.098
							l-0.774-0.49c-0.255-0.167-0.515-0.327-0.792-0.459l-0.816-0.419c-0.274-0.135-0.566-0.237-0.848-0.356
							c-0.56-0.251-1.161-0.398-1.746-0.578c-1.194-0.294-2.427-0.434-3.657-0.393c-1.237,0.048-2.44,0.239-3.637,0.723
							c-0.205,0.083-0.304,0.316-0.22,0.52c0.083,0.202,0.313,0.3,0.516,0.222L406.582,296.191z"/>
						<path style="fill:#E48771;" d="M409.701,286.22c1.1-0.146,2.293-0.047,3.407,0.202c1.124,0.251,2.206,0.666,3.218,1.211
							c0.488,0.303,0.997,0.573,1.446,0.934c0.228,0.175,0.468,0.333,0.685,0.521l0.643,0.574c0.221,0.184,0.42,0.392,0.613,0.605
							l0.59,0.629c0.372,0.439,0.716,0.903,1.075,1.352l0.033,0.041c0.181,0.225,0.51,0.263,0.737,0.083
							c0.227-0.179,0.264-0.508,0.084-0.733c-0.002-0.003-0.006-0.008-0.009-0.011c-0.393-0.464-0.77-0.941-1.177-1.392
							l-0.645-0.648c-0.212-0.219-0.428-0.432-0.669-0.621l-0.701-0.588c-0.237-0.192-0.498-0.355-0.745-0.533
							c-0.488-0.368-1.04-0.643-1.569-0.947c-1.095-0.548-2.261-0.955-3.462-1.186c-1.208-0.226-2.422-0.302-3.675-0.098
							c-0.169,0.027-0.283,0.186-0.255,0.353c0.027,0.164,0.181,0.277,0.345,0.255L409.701,286.22z"/>
						<path style="fill:#E48771;" d="M409.97,278.078c1.086-0.228,2.282-0.219,3.413-0.054c1.14,0.166,2.251,0.499,3.301,0.966
							c0.51,0.266,1.038,0.496,1.513,0.823c0.24,0.158,0.492,0.297,0.723,0.468l0.685,0.524c0.234,0.167,0.448,0.359,0.658,0.558
							l0.636,0.583c0.404,0.41,0.782,0.847,1.174,1.267l0.036,0.038c0.197,0.211,0.529,0.224,0.741,0.028
							c0.212-0.196,0.225-0.526,0.028-0.737c-0.003-0.003-0.007-0.008-0.01-0.01c-0.427-0.434-0.839-0.88-1.279-1.3l-0.692-0.598
							c-0.228-0.202-0.46-0.399-0.714-0.569l-0.744-0.534c-0.25-0.174-0.523-0.316-0.784-0.476c-0.515-0.33-1.086-0.563-1.636-0.827
							c-1.133-0.464-2.327-0.783-3.542-0.923c-1.221-0.134-2.438-0.12-3.672,0.178c-0.166,0.04-0.268,0.206-0.228,0.371
							c0.039,0.162,0.201,0.262,0.364,0.228L409.97,278.078z"/>
					</g>
				</g>
			</g>
		</g>
	</g>
</g>
</svg>
